<svg width="41" height="29" viewBox="0 0 41 29" fill="none" xmlns="http://www.w3.org/2000/svg">
<g clip-path="url(#clip0_2823_581)">
<path d="M20.5 20.9048H16.2871L14.4795 18.8343C13.1477 19.4772 11.6537 19.8369 10.0711 19.8369C4.51907 19.8369 0 15.3907 0 9.92024C0 4.44976 4.51907 0 10.0711 0C15.6231 0 20.1458 4.44976 20.1458 9.92024C20.1458 11.1807 19.9061 12.3903 19.4671 13.5018H15.5235C16.2207 12.4775 16.6302 11.2461 16.6302 9.92024C16.6302 6.36043 13.69 3.46173 10.0748 3.46173C6.45951 3.46173 3.51934 6.3568 3.51934 9.92024C3.51934 13.4837 6.45951 16.3751 10.0748 16.3751C10.7683 16.3751 11.4397 16.2661 12.0705 16.07L9.48452 13.1059H13.6974L20.5 20.9048Z" fill="#A5FFED"/>
<path d="M41 19.4462H36.7135L31.2481 12.5726L25.7865 19.4462H21.5L29.1087 9.87288L21.6431 0.486084H25.9296L41 19.4462ZM36.028 6.56226H31.7378L36.5704 0.486084H40.8569L36.028 6.56226Z" fill="#A5FFED"/>
<path d="M10.7647 28.8519H6.83594V23.4072H7.86454V27.9096H10.7647V28.8483V28.8519Z" fill="#A5FFED"/>
<path d="M16.9665 28.8519H15.9193L15.4143 27.628H12.685L12.18 28.8519H11.1328L13.372 23.4072H14.7236L16.9628 28.8519H16.9665ZM15.0393 26.7181L14.0478 24.3135L13.0563 26.7181H15.0355H15.0393Z" fill="#A5FFED"/>
<path d="M22.7997 27.2958C22.7997 28.1551 22.083 28.8519 21.1993 28.8519H17.8164V23.4072H21.047C21.8862 23.4072 22.5695 24.068 22.5695 24.8876C22.5695 25.4544 22.1387 25.848 21.9085 25.9888C22.2167 26.1296 22.7997 26.5592 22.7997 27.2958ZM20.8465 24.3243H18.819V25.6097H20.8465C21.2141 25.6097 21.5112 25.3316 21.5112 24.9742C21.5112 24.6168 21.2141 24.3279 20.8465 24.3279V24.3243ZM21.7637 27.2091C21.7637 26.8084 21.4295 26.487 21.0173 26.487H18.819V27.9385H21.0173C21.4295 27.9385 21.7637 27.6135 21.7637 27.2127V27.2091Z" fill="#A5FFED"/>
<path d="M23.4746 28.3466C23.4746 27.9856 23.7754 27.6931 24.1467 27.6931C24.5181 27.6931 24.8188 27.9856 24.8188 28.3466C24.8188 28.7077 24.5181 29.0001 24.1467 29.0001C23.7754 29.0001 23.4746 28.7077 23.4746 28.3466Z" fill="#A5FFED"/>
<path d="M25.9336 23.4072H26.9622V28.8519H25.9336V23.4072Z" fill="#A5FFED"/>
<path d="M34.0101 26.1297C34.0101 27.7111 32.6881 28.9965 31.0617 28.9965C29.4352 28.9965 28.1133 27.7111 28.1133 26.1297C28.1133 24.5483 29.4352 23.2629 31.0617 23.2629C32.6881 23.2629 34.0101 24.5483 34.0101 26.1297ZM32.9815 26.1297C32.9815 25.1007 32.12 24.2631 31.0617 24.2631C30.0034 24.2631 29.1419 25.1007 29.1419 26.1297C29.1419 27.1587 30.0034 27.9964 31.0617 27.9964C32.12 27.9964 32.9815 27.1587 32.9815 26.1297Z" fill="#A5FFED"/>
</g>
<defs>
<clipPath id="clip0_2823_581">
<rect width="41" height="29" fill="white"/>
</clipPath>
</defs>
</svg>
