<svg width="157" height="233" viewBox="0 0 157 233" fill="none" xmlns="http://www.w3.org/2000/svg">
<g opacity="0.11" filter="url(#filter0_f_2808_900)">
<path d="M4 9.12821C4 6.29598 6.31029 4 9.16017 4H147.84C150.69 4 153 6.29598 153 9.12821V223.872C153 226.704 150.69 229 147.84 229H9.16017C6.31029 229 4 226.704 4 223.872V9.12821Z" fill="#D9D9D9" fill-opacity="0.14"/>
<path d="M21.4921 114.256V107.73H23.833C24.344 107.73 24.7673 107.822 25.1029 108.007C25.4386 108.192 25.6898 108.445 25.8565 108.765C26.0233 109.084 26.1067 109.443 26.1067 109.843C26.1067 110.244 26.0222 110.605 25.8533 110.926C25.6866 111.245 25.4343 111.498 25.0965 111.685C24.7609 111.869 24.3386 111.962 23.8298 111.962H22.22V111.127H23.74C24.0629 111.127 24.3247 111.072 24.5257 110.961C24.7267 110.849 24.8742 110.696 24.9682 110.502C25.0623 110.309 25.1093 110.089 25.1093 109.843C25.1093 109.596 25.0623 109.377 24.9682 109.186C24.8742 108.995 24.7256 108.845 24.5225 108.737C24.3215 108.628 24.0564 108.574 23.7272 108.574H22.483V114.256H21.4921Z" fill="white"/>
<path d="M29.2525 114.355C28.7672 114.355 28.3493 114.252 27.9987 114.046C27.6502 113.838 27.3808 113.546 27.1905 113.17C27.0024 112.791 26.9083 112.349 26.9083 111.841C26.9083 111.339 27.0024 110.897 27.1905 110.515C27.3808 110.133 27.6459 109.834 27.9858 109.619C28.3279 109.405 28.7277 109.298 29.1852 109.298C29.4631 109.298 29.7325 109.343 29.9933 109.435C30.2541 109.526 30.4882 109.669 30.6956 109.865C30.9029 110.06 31.0665 110.314 31.1862 110.627C31.3059 110.937 31.3658 111.314 31.3658 111.758V112.096H27.4503V111.382H30.4262C30.4262 111.131 30.3749 110.909 30.2723 110.716C30.1696 110.52 30.0253 110.366 29.8393 110.254C29.6555 110.141 29.4396 110.085 29.1916 110.085C28.9222 110.085 28.687 110.151 28.4861 110.282C28.2873 110.412 28.1333 110.582 28.0243 110.792C27.9174 111 27.864 111.227 27.864 111.471V112.029C27.864 112.356 27.9217 112.634 28.0371 112.864C28.1547 113.093 28.3183 113.268 28.5278 113.39C28.7373 113.509 28.9821 113.568 29.2621 113.568C29.4438 113.568 29.6095 113.543 29.7592 113.492C29.9088 113.438 30.0382 113.36 30.1472 113.256C30.2562 113.152 30.3396 113.023 30.3973 112.87L31.3048 113.033C31.2322 113.298 31.1018 113.531 30.9136 113.731C30.7276 113.928 30.4935 114.082 30.2113 114.193C29.9313 114.301 29.6117 114.355 29.2525 114.355Z" fill="white"/>
<path d="M32.4296 114.256V109.361H33.3564V110.139H33.4077C33.4975 109.875 33.6557 109.668 33.8823 109.517C34.111 109.364 34.3697 109.288 34.6583 109.288C34.7182 109.288 34.7887 109.29 34.87 109.294C34.9534 109.299 35.0186 109.304 35.0656 109.31V110.222C35.0271 110.211 34.9587 110.199 34.8604 110.187C34.762 110.172 34.6637 110.164 34.5653 110.164C34.3387 110.164 34.1367 110.212 33.9593 110.308C33.784 110.401 33.645 110.532 33.5424 110.7C33.4398 110.866 33.3885 111.055 33.3885 111.267V114.256H32.4296Z" fill="white"/>
<path d="M38.5305 109.361V110.126H35.747V109.361H38.5305ZM36.5103 114.256V108.794C36.5103 108.488 36.5776 108.234 36.7123 108.032C36.847 107.828 37.0255 107.676 37.2478 107.577C37.4702 107.475 37.7117 107.424 37.9726 107.424C38.165 107.424 38.3296 107.44 38.4664 107.471C38.6032 107.501 38.7048 107.529 38.771 107.554L38.5466 108.326C38.5017 108.313 38.4439 108.298 38.3734 108.281C38.3028 108.262 38.2173 108.252 38.1169 108.252C37.8838 108.252 37.7171 108.31 37.6166 108.424C37.5183 108.539 37.4691 108.705 37.4691 108.922V114.256H36.5103Z" fill="white"/>
<path d="M41.4006 114.355C40.9388 114.355 40.5358 114.25 40.1916 114.04C39.8475 113.829 39.5802 113.535 39.3899 113.157C39.1997 112.779 39.1045 112.337 39.1045 111.831C39.1045 111.323 39.1997 110.879 39.3899 110.499C39.5802 110.119 39.8475 109.823 40.1916 109.613C40.5358 109.403 40.9388 109.298 41.4006 109.298C41.8624 109.298 42.2654 109.403 42.6096 109.613C42.9538 109.823 43.221 110.119 43.4113 110.499C43.6015 110.879 43.6967 111.323 43.6967 111.831C43.6967 112.337 43.6015 112.779 43.4113 113.157C43.221 113.535 42.9538 113.829 42.6096 114.04C42.2654 114.25 41.8624 114.355 41.4006 114.355ZM41.4038 113.555C41.7031 113.555 41.9511 113.477 42.1478 113.319C42.3445 113.162 42.4898 112.953 42.5839 112.692C42.6801 112.43 42.7282 112.142 42.7282 111.828C42.7282 111.516 42.6801 111.229 42.5839 110.968C42.4898 110.704 42.3445 110.493 42.1478 110.333C41.9511 110.174 41.7031 110.094 41.4038 110.094C41.1024 110.094 40.8522 110.174 40.6534 110.333C40.4567 110.493 40.3103 110.704 40.2141 110.968C40.12 111.229 40.073 111.516 40.073 111.828C40.073 112.142 40.12 112.43 40.2141 112.692C40.3103 112.953 40.4567 113.162 40.6534 113.319C40.8522 113.477 41.1024 113.555 41.4038 113.555Z" fill="white"/>
<path d="M44.7669 114.256V109.361H45.6937V110.139H45.745C45.8348 109.875 45.993 109.668 46.2196 109.517C46.4483 109.364 46.707 109.288 46.9956 109.288C47.0555 109.288 47.126 109.29 47.2073 109.294C47.2907 109.299 47.3559 109.304 47.4029 109.31V110.222C47.3644 110.211 47.296 110.199 47.1977 110.187C47.0993 110.172 47.001 110.164 46.9026 110.164C46.676 110.164 46.474 110.212 46.2966 110.308C46.1213 110.401 45.9823 110.532 45.8797 110.7C45.7771 110.866 45.7257 111.055 45.7257 111.267V114.256H44.7669Z" fill="white"/>
<path d="M48.2327 114.256V109.361H49.153V110.158H49.2139C49.3166 109.888 49.4844 109.678 49.7174 109.527C49.9504 109.374 50.2294 109.298 50.5544 109.298C50.8836 109.298 51.1594 109.374 51.3817 109.527C51.6062 109.68 51.7719 109.89 51.8788 110.158H51.9301C52.0477 109.897 52.2347 109.688 52.4913 109.533C52.7478 109.376 53.0535 109.298 53.4084 109.298C53.8552 109.298 54.2197 109.437 54.5019 109.715C54.7863 109.993 54.9284 110.413 54.9284 110.974V114.256H53.9696V111.063C53.9696 110.732 53.8787 110.492 53.697 110.343C53.5153 110.194 53.2983 110.12 53.046 110.12C52.7339 110.12 52.4913 110.215 52.3181 110.407C52.1449 110.596 52.0583 110.839 52.0583 111.136V114.256H51.1027V111.003C51.1027 110.737 51.0194 110.523 50.8526 110.362C50.6858 110.201 50.4689 110.12 50.2016 110.12C50.0199 110.12 49.8521 110.168 49.6982 110.263C49.5464 110.357 49.4234 110.487 49.3294 110.655C49.2374 110.823 49.1915 111.017 49.1915 111.238V114.256H48.2327Z" fill="white"/>
<path d="M57.647 114.365C57.3348 114.365 57.0526 114.307 56.8004 114.193C56.5481 114.076 56.3482 113.907 56.2007 113.686C56.0553 113.465 55.9827 113.194 55.9827 112.873C55.9827 112.597 56.0361 112.37 56.143 112.191C56.2499 112.013 56.3942 111.872 56.5759 111.767C56.7576 111.663 56.9607 111.585 57.1852 111.532C57.4097 111.478 57.6384 111.438 57.8714 111.41C58.1665 111.377 58.4059 111.349 58.5898 111.328C58.7736 111.304 58.9072 111.267 58.9906 111.216C59.074 111.165 59.1157 111.082 59.1157 110.968V110.945C59.1157 110.667 59.0366 110.451 58.8784 110.298C58.7223 110.145 58.4893 110.069 58.1793 110.069C57.8565 110.069 57.6021 110.14 57.4161 110.282C57.2322 110.423 57.105 110.579 57.0345 110.751L56.1334 110.547C56.2403 110.249 56.3963 110.009 56.6016 109.827C56.8089 109.642 57.0473 109.508 57.3167 109.425C57.586 109.34 57.8693 109.298 58.1665 109.298C58.3631 109.298 58.5716 109.321 58.7918 109.368C59.0141 109.412 59.2215 109.495 59.4139 109.616C59.6085 109.737 59.7677 109.911 59.8917 110.136C60.0157 110.359 60.0777 110.649 60.0777 111.006V114.256H59.1413V113.587H59.1028C59.0409 113.71 58.9479 113.831 58.8239 113.95C58.6999 114.069 58.5406 114.168 58.3461 114.247C58.1515 114.325 57.9185 114.365 57.647 114.365ZM57.8554 113.6C58.1205 113.6 58.3471 113.548 58.5353 113.444C58.7255 113.34 58.8698 113.204 58.9682 113.036C59.0686 112.866 59.1189 112.684 59.1189 112.491V111.86C59.0847 111.894 59.0184 111.926 58.9201 111.955C58.8239 111.983 58.7138 112.008 58.5898 112.029C58.4658 112.048 58.345 112.066 58.2274 112.083C58.1098 112.098 58.0115 112.111 57.9324 112.121C57.7464 112.145 57.5764 112.184 57.4225 112.239C57.2707 112.294 57.1488 112.374 57.0569 112.478C56.9671 112.58 56.9222 112.716 56.9222 112.886C56.9222 113.122 57.0099 113.3 57.1852 113.421C57.3605 113.54 57.5839 113.6 57.8554 113.6Z" fill="white"/>
<path d="M62.3136 111.35V114.256H61.3548V109.361H62.2752V110.158H62.3361C62.4494 109.899 62.6268 109.691 62.8684 109.533C63.1121 109.376 63.4189 109.298 63.7888 109.298C64.1244 109.298 64.4184 109.368 64.6706 109.508C64.9229 109.646 65.1185 109.852 65.2575 110.126C65.3964 110.4 65.4659 110.739 65.4659 111.143V114.256H64.5071V111.258C64.5071 110.903 64.4141 110.625 64.2281 110.426C64.0421 110.224 63.7866 110.123 63.4617 110.123C63.2393 110.123 63.0416 110.171 62.8684 110.266C62.6974 110.362 62.5616 110.502 62.4612 110.687C62.3628 110.87 62.3136 111.091 62.3136 111.35Z" fill="white"/>
<path d="M68.8266 114.355C68.3499 114.355 67.9394 114.248 67.5952 114.033C67.2532 113.817 66.9902 113.518 66.8063 113.138C66.6225 112.757 66.5306 112.322 66.5306 111.831C66.5306 111.334 66.6246 110.895 66.8128 110.515C67.0009 110.133 67.266 109.834 67.608 109.619C67.9501 109.405 68.3531 109.298 68.817 109.298C69.1911 109.298 69.5246 109.367 69.8175 109.505C70.1104 109.641 70.3466 109.832 70.5262 110.078C70.7079 110.325 70.8159 110.613 70.8501 110.942H69.9169C69.8656 110.713 69.748 110.515 69.5642 110.349C69.3825 110.184 69.1387 110.101 68.833 110.101C68.5658 110.101 68.3317 110.171 68.1308 110.311C67.9319 110.449 67.7769 110.647 67.6658 110.904C67.5546 111.159 67.499 111.46 67.499 111.809C67.499 112.166 67.5535 112.474 67.6626 112.733C67.7716 112.992 67.9255 113.193 68.1243 113.335C68.3253 113.478 68.5615 113.549 68.833 113.549C69.0147 113.549 69.1794 113.516 69.3269 113.45C69.4765 113.382 69.6016 113.285 69.7021 113.16C69.8047 113.035 69.8763 112.884 69.9169 112.708H70.8501C70.8159 113.024 70.7122 113.307 70.539 113.555C70.3659 113.804 70.1339 113.999 69.8432 114.142C69.5546 114.284 69.2157 114.355 68.8266 114.355Z" fill="white"/>
<path d="M73.9984 114.355C73.5131 114.355 73.0951 114.252 72.7445 114.046C72.396 113.838 72.1267 113.546 71.9364 113.17C71.7483 112.791 71.6542 112.349 71.6542 111.841C71.6542 111.339 71.7483 110.897 71.9364 110.515C72.1267 110.133 72.3918 109.834 72.7317 109.619C73.0737 109.405 73.4735 109.298 73.931 109.298C74.2089 109.298 74.4783 109.343 74.7391 109.435C74.9999 109.526 75.234 109.669 75.4414 109.865C75.6488 110.06 75.8123 110.314 75.9321 110.627C76.0518 110.937 76.1116 111.314 76.1116 111.758V112.096H72.1962V111.382H75.172C75.172 111.131 75.1207 110.909 75.0181 110.716C74.9155 110.52 74.7712 110.366 74.5852 110.254C74.4013 110.141 74.1854 110.085 73.9374 110.085C73.6681 110.085 73.4329 110.151 73.2319 110.282C73.0331 110.412 72.8792 110.582 72.7702 110.792C72.6633 111 72.6098 111.227 72.6098 111.471V112.029C72.6098 112.356 72.6675 112.634 72.783 112.864C72.9006 113.093 73.0641 113.268 73.2736 113.39C73.4831 113.509 73.7279 113.568 74.008 113.568C74.1897 113.568 74.3554 113.543 74.505 113.492C74.6547 113.438 74.784 113.36 74.8931 113.256C75.0021 113.152 75.0855 113.023 75.1432 112.87L76.0507 113.033C75.978 113.298 75.8476 113.531 75.6595 113.731C75.4735 113.928 75.2394 114.082 74.9572 114.193C74.6771 114.301 74.3575 114.355 73.9984 114.355Z" fill="white"/>
<path d="M136.874 111.372C136.874 117.567 131.821 122.59 125.587 122.59C119.352 122.59 114.299 117.567 114.299 111.372C114.299 105.176 119.352 100.154 125.587 100.154C131.821 100.154 136.874 105.176 136.874 111.372Z" fill="#3CC49A"/>
<path d="M123.222 107.894C123.491 107.896 123.753 107.943 124.008 108.036C124.264 108.127 124.495 108.277 124.701 108.484C124.906 108.69 125.069 108.966 125.19 109.312C125.311 109.658 125.371 110.086 125.371 110.596C125.373 111.077 125.322 111.506 125.217 111.885C125.115 112.262 124.967 112.581 124.775 112.841C124.582 113.102 124.351 113.3 124.079 113.437C123.808 113.573 123.503 113.642 123.164 113.642C122.809 113.642 122.493 113.572 122.219 113.434C121.945 113.296 121.725 113.106 121.556 112.866C121.388 112.625 121.284 112.35 121.245 112.041H122.249C122.3 112.263 122.405 112.44 122.562 112.571C122.722 112.7 122.922 112.765 123.164 112.765C123.554 112.765 123.855 112.596 124.066 112.259C124.276 111.922 124.382 111.454 124.382 110.855H124.343C124.253 111.016 124.137 111.154 123.994 111.271C123.851 111.385 123.689 111.474 123.508 111.535C123.328 111.597 123.137 111.628 122.936 111.628C122.606 111.628 122.309 111.55 122.045 111.393C121.783 111.237 121.575 111.022 121.421 110.749C121.269 110.476 121.192 110.163 121.191 109.812C121.191 109.448 121.275 109.121 121.443 108.831C121.614 108.54 121.851 108.31 122.155 108.143C122.459 107.973 122.815 107.891 123.222 107.894ZM123.225 108.714C123.027 108.714 122.848 108.762 122.689 108.858C122.531 108.953 122.406 109.082 122.315 109.246C122.225 109.408 122.18 109.59 122.18 109.79C122.182 109.988 122.227 110.169 122.315 110.331C122.405 110.493 122.526 110.621 122.68 110.716C122.836 110.811 123.014 110.858 123.214 110.858C123.362 110.858 123.5 110.83 123.629 110.773C123.757 110.717 123.869 110.639 123.964 110.538C124.061 110.436 124.136 110.321 124.189 110.192C124.244 110.062 124.271 109.926 124.269 109.782C124.269 109.591 124.223 109.414 124.132 109.252C124.042 109.09 123.918 108.96 123.761 108.861C123.605 108.763 123.426 108.714 123.225 108.714Z" fill="white"/>
<path d="M126.287 113.565V112.833L128.241 110.929C128.428 110.742 128.584 110.575 128.708 110.429C128.833 110.284 128.926 110.142 128.989 110.006C129.051 109.869 129.082 109.724 129.082 109.569C129.082 109.392 129.042 109.241 128.961 109.115C128.88 108.988 128.77 108.889 128.628 108.82C128.487 108.751 128.327 108.716 128.147 108.716C127.962 108.716 127.8 108.755 127.661 108.831C127.522 108.906 127.414 109.012 127.337 109.151C127.261 109.289 127.224 109.454 127.224 109.645H126.254C126.254 109.29 126.335 108.981 126.498 108.719C126.661 108.457 126.886 108.254 127.172 108.11C127.459 107.966 127.789 107.894 128.161 107.894C128.539 107.894 128.87 107.964 129.156 108.105C129.442 108.245 129.664 108.437 129.821 108.681C129.981 108.925 130.06 109.204 130.06 109.517C130.06 109.726 130.02 109.932 129.94 110.134C129.859 110.336 129.717 110.56 129.514 110.806C129.312 111.052 129.029 111.35 128.664 111.699L127.694 112.68V112.718H130.146V113.565H126.287Z" fill="white"/>
<path d="M25.7154 137.217H26.7095V141.51C26.7095 141.966 26.6016 142.371 26.3856 142.724C26.1697 143.074 25.8661 143.351 25.4749 143.552C25.0837 143.752 24.6251 143.852 24.0992 143.852C23.5754 143.852 23.1179 143.752 22.7267 143.552C22.3355 143.351 22.0319 143.074 21.816 142.724C21.6 142.371 21.4921 141.966 21.4921 141.51V137.217H22.483V141.43C22.483 141.725 22.5482 141.988 22.6786 142.217C22.8111 142.447 22.9982 142.627 23.2398 142.759C23.4814 142.888 23.7678 142.953 24.0992 142.953C24.4327 142.953 24.7202 142.888 24.9618 142.759C25.2055 142.627 25.3915 142.447 25.5198 142.217C25.6502 141.988 25.7154 141.725 25.7154 141.43V137.217Z" fill="white"/>
<path d="M31.7642 140.044L30.8952 140.197C30.8588 140.086 30.8011 139.981 30.722 139.881C30.6451 139.781 30.5403 139.699 30.4077 139.636C30.2752 139.572 30.1095 139.54 29.9107 139.54C29.6392 139.54 29.4126 139.601 29.2309 139.722C29.0491 139.841 28.9583 139.995 28.9583 140.184C28.9583 140.347 29.0192 140.479 29.1411 140.579C29.2629 140.679 29.4596 140.761 29.7311 140.824L30.5136 141.003C30.9668 141.107 31.3046 141.267 31.5269 141.484C31.7493 141.701 31.8604 141.982 31.8604 142.329C31.8604 142.622 31.7749 142.883 31.6039 143.113C31.435 143.34 31.1988 143.518 30.8952 143.648C30.5937 143.778 30.2442 143.842 29.8466 143.842C29.295 143.842 28.845 143.726 28.4965 143.492C28.148 143.256 27.9342 142.921 27.8551 142.488L28.7819 142.348C28.8396 142.588 28.9583 142.769 29.1379 142.893C29.3174 143.014 29.5515 143.074 29.8401 143.074C30.1544 143.074 30.4056 143.01 30.5937 142.88C30.7819 142.748 30.8759 142.588 30.8759 142.399C30.8759 142.246 30.8182 142.117 30.7028 142.013C30.5895 141.909 30.4152 141.83 30.1801 141.777L29.3463 141.596C28.8867 141.492 28.5467 141.326 28.3265 141.098C28.1085 140.871 27.9995 140.583 27.9995 140.235C27.9995 139.946 28.0807 139.693 28.2432 139.476C28.4056 139.26 28.6301 139.091 28.9166 138.97C29.2031 138.846 29.5312 138.785 29.9011 138.785C30.4334 138.785 30.8524 138.899 31.1581 139.129C31.4638 139.356 31.6659 139.661 31.7642 140.044Z" fill="white"/>
<path d="M34.3481 143.852C34.036 143.852 33.7538 143.795 33.5015 143.68C33.2492 143.563 33.0493 143.394 32.9018 143.173C32.7565 142.952 32.6838 142.681 32.6838 142.36C32.6838 142.084 32.7372 141.857 32.8441 141.678C32.951 141.5 33.0953 141.359 33.277 141.255C33.4587 141.151 33.6618 141.072 33.8863 141.019C34.1108 140.966 34.3395 140.925 34.5726 140.898C34.8676 140.864 35.107 140.836 35.2909 140.815C35.4747 140.791 35.6084 140.754 35.6917 140.703C35.7751 140.652 35.8168 140.569 35.8168 140.455V140.432C35.8168 140.154 35.7377 139.938 35.5795 139.785C35.4234 139.632 35.1904 139.556 34.8804 139.556C34.5576 139.556 34.3032 139.627 34.1172 139.77C33.9333 139.91 33.8061 140.066 33.7356 140.238L32.8345 140.034C32.9414 139.737 33.0974 139.497 33.3027 139.314C33.51 139.129 33.7484 138.995 34.0178 138.912C34.2872 138.827 34.5704 138.785 34.8676 138.785C35.0643 138.785 35.2727 138.808 35.4929 138.855C35.7152 138.899 35.9226 138.982 36.115 139.103C36.3096 139.225 36.4688 139.398 36.5928 139.623C36.7168 139.846 36.7788 140.136 36.7788 140.493V143.744H35.8424V143.074H35.804C35.742 143.198 35.649 143.319 35.525 143.438C35.401 143.557 35.2417 143.655 35.0472 143.734C34.8526 143.813 34.6196 143.852 34.3481 143.852ZM34.5565 143.087C34.8216 143.087 35.0482 143.035 35.2364 142.931C35.4266 142.827 35.5709 142.691 35.6693 142.523C35.7698 142.353 35.82 142.171 35.82 141.978V141.347C35.7858 141.381 35.7195 141.413 35.6212 141.443C35.525 141.47 35.4149 141.495 35.2909 141.516C35.1669 141.535 35.0461 141.553 34.9285 141.57C34.8109 141.585 34.7126 141.598 34.6335 141.608C34.4475 141.632 34.2775 141.671 34.1236 141.726C33.9718 141.782 33.85 141.861 33.758 141.965C33.6682 142.067 33.6234 142.203 33.6234 142.373C33.6234 142.609 33.711 142.788 33.8863 142.909C34.0616 143.028 34.285 143.087 34.5565 143.087Z" fill="white"/>
<path d="M38.1329 143.744V137.217H39.0917V139.642H39.1494C39.205 139.54 39.2852 139.422 39.3899 139.288C39.4947 139.154 39.6401 139.038 39.8261 138.938C40.0121 138.836 40.2579 138.785 40.5636 138.785C40.9613 138.785 41.3162 138.885 41.6283 139.084C41.9404 139.284 42.1852 139.572 42.3626 139.948C42.5422 140.324 42.632 140.777 42.632 141.306C42.632 141.835 42.5433 142.288 42.3658 142.666C42.1884 143.042 41.9447 143.332 41.6347 143.536C41.3247 143.738 40.9709 143.839 40.5733 143.839C40.274 143.839 40.0292 143.789 39.8389 143.689C39.6508 143.59 39.5033 143.473 39.3964 143.339C39.2895 143.205 39.2072 143.086 39.1494 142.982H39.0693V143.744H38.1329ZM39.0725 141.296C39.0725 141.64 39.1227 141.942 39.2232 142.201C39.3237 142.46 39.4691 142.663 39.6593 142.81C39.8496 142.954 40.0826 143.027 40.3584 143.027C40.6449 143.027 40.8843 142.951 41.0767 142.8C41.2691 142.647 41.4145 142.44 41.5128 142.179C41.6133 141.917 41.6636 141.623 41.6636 141.296C41.6636 140.973 41.6144 140.683 41.516 140.426C41.4198 140.169 41.2745 139.966 41.0799 139.817C40.8875 139.669 40.647 139.594 40.3584 139.594C40.0805 139.594 39.8453 139.665 39.6529 139.808C39.4626 139.95 39.3183 140.149 39.22 140.404C39.1217 140.659 39.0725 140.956 39.0725 141.296Z" fill="white"/>
<path d="M43.7087 143.744V138.848H44.6675V143.744H43.7087ZM44.1929 138.093C44.0262 138.093 43.8829 138.038 43.7632 137.927C43.6456 137.815 43.5868 137.681 43.5868 137.526C43.5868 137.369 43.6456 137.235 43.7632 137.124C43.8829 137.012 44.0262 136.955 44.1929 136.955C44.3597 136.955 44.5018 137.012 44.6194 137.124C44.7391 137.235 44.799 137.369 44.799 137.526C44.799 137.681 44.7391 137.815 44.6194 137.927C44.5018 138.038 44.3597 138.093 44.1929 138.093Z" fill="white"/>
<path d="M46.9163 137.217V143.744H45.9574V137.217H46.9163Z" fill="white"/>
<path d="M48.2062 143.744V138.848H49.165V143.744H48.2062ZM48.6904 138.093C48.5237 138.093 48.3804 138.038 48.2607 137.927C48.1431 137.815 48.0843 137.681 48.0843 137.526C48.0843 137.369 48.1431 137.235 48.2607 137.124C48.3804 137.012 48.5237 136.955 48.6904 136.955C48.8572 136.955 48.9993 137.012 49.1169 137.124C49.2366 137.235 49.2965 137.369 49.2965 137.526C49.2965 137.681 49.2366 137.815 49.1169 137.927C48.9993 138.038 48.8572 138.093 48.6904 138.093Z" fill="white"/>
<path d="M52.7542 138.848V139.613H50.0637V138.848H52.7542ZM50.7853 137.676H51.7441V142.306C51.7441 142.491 51.7719 142.63 51.8275 142.724C51.883 142.815 51.9547 142.878 52.0423 142.912C52.1321 142.944 52.2294 142.96 52.3341 142.96C52.4111 142.96 52.4784 142.954 52.5362 142.944C52.5939 142.933 52.6388 142.925 52.6708 142.918L52.844 143.705C52.7884 143.727 52.7093 143.748 52.6067 143.769C52.5041 143.792 52.3758 143.805 52.2219 143.807C51.9696 143.812 51.7345 143.767 51.5164 143.673C51.2983 143.58 51.122 143.436 50.9873 143.24C50.8526 143.045 50.7853 142.799 50.7853 142.504V137.676Z" fill="white"/>
<path d="M54.4209 145.579C54.2777 145.579 54.1473 145.568 54.0297 145.544C53.9121 145.523 53.8245 145.5 53.7668 145.474L53.9977 144.693C54.173 144.74 54.329 144.76 54.4658 144.754C54.6027 144.747 54.7235 144.696 54.8282 144.601C54.9351 144.505 55.0292 144.349 55.1104 144.132L55.2291 143.807L53.4268 138.848H54.453L55.7005 142.647H55.7518L56.9992 138.848H58.0286L55.9987 144.397C55.9046 144.652 55.7849 144.868 55.6395 145.044C55.4941 145.222 55.321 145.356 55.12 145.445C54.9191 145.535 54.686 145.579 54.4209 145.579Z" fill="white"/>
<path d="M136.874 140.218C136.874 146.413 131.821 151.436 125.587 151.436C119.352 151.436 114.299 146.413 114.299 140.218C114.299 134.022 119.352 129 125.587 129C131.821 129 136.874 134.022 136.874 140.218Z" fill="#684DD2"/>
<path d="M123.223 142.488C122.954 142.486 122.691 142.439 122.434 142.348C122.178 142.256 121.947 142.105 121.742 141.898C121.536 141.688 121.373 141.411 121.252 141.065C121.131 140.717 121.072 140.286 121.074 139.772C121.074 139.294 121.125 138.867 121.228 138.491C121.33 138.116 121.478 137.799 121.67 137.541C121.863 137.28 122.094 137.082 122.366 136.945C122.639 136.809 122.944 136.74 123.281 136.74C123.635 136.74 123.948 136.81 124.221 136.948C124.496 137.086 124.718 137.276 124.886 137.516C125.055 137.755 125.159 138.024 125.199 138.325H124.196C124.145 138.11 124.04 137.939 123.88 137.811C123.723 137.682 123.523 137.617 123.281 137.617C122.891 137.617 122.59 137.786 122.379 138.123C122.17 138.459 122.065 138.922 122.063 139.51H122.102C122.191 139.35 122.308 139.213 122.451 139.098C122.594 138.983 122.755 138.895 122.935 138.833C123.116 138.769 123.307 138.737 123.509 138.737C123.839 138.737 124.135 138.816 124.397 138.972C124.661 139.129 124.87 139.345 125.024 139.62C125.177 139.893 125.254 140.206 125.252 140.559C125.254 140.927 125.169 141.258 124.999 141.551C124.828 141.842 124.591 142.072 124.287 142.239C123.983 142.407 123.628 142.49 123.223 142.488ZM123.218 141.668C123.417 141.668 123.596 141.62 123.754 141.523C123.911 141.427 124.036 141.297 124.127 141.133C124.219 140.969 124.264 140.785 124.262 140.581C124.264 140.381 124.22 140.2 124.13 140.037C124.042 139.875 123.92 139.747 123.765 139.652C123.609 139.558 123.431 139.51 123.231 139.51C123.083 139.51 122.945 139.538 122.816 139.595C122.688 139.651 122.576 139.73 122.481 139.83C122.386 139.928 122.311 140.043 122.256 140.174C122.202 140.303 122.175 140.442 122.173 140.589C122.175 140.784 122.221 140.964 122.311 141.127C122.4 141.291 122.524 141.422 122.682 141.521C122.839 141.619 123.018 141.668 123.218 141.668Z" fill="white"/>
<path d="M128.135 136.74C128.404 136.742 128.666 136.79 128.921 136.882C129.178 136.973 129.409 137.123 129.614 137.33C129.819 137.536 129.982 137.812 130.103 138.158C130.224 138.504 130.285 138.932 130.285 139.442C130.286 139.923 130.235 140.353 130.131 140.731C130.028 141.108 129.88 141.427 129.688 141.687C129.496 141.948 129.264 142.146 128.993 142.283C128.721 142.419 128.416 142.488 128.077 142.488C127.722 142.488 127.407 142.419 127.132 142.28C126.859 142.142 126.638 141.952 126.469 141.712C126.301 141.472 126.197 141.197 126.159 140.887H127.162C127.213 141.109 127.318 141.286 127.475 141.417C127.635 141.546 127.835 141.611 128.077 141.611C128.468 141.611 128.768 141.442 128.979 141.106C129.19 140.769 129.295 140.301 129.295 139.701H129.257C129.167 139.862 129.05 140 128.907 140.117C128.764 140.231 128.602 140.32 128.421 140.382C128.241 140.444 128.051 140.475 127.849 140.475C127.519 140.475 127.222 140.396 126.959 140.24C126.697 140.083 126.489 139.868 126.335 139.595C126.183 139.322 126.106 139.009 126.104 138.658C126.104 138.294 126.188 137.967 126.357 137.677C126.527 137.386 126.764 137.156 127.069 136.989C127.373 136.82 127.728 136.737 128.135 136.74ZM128.138 137.56C127.94 137.56 127.761 137.608 127.602 137.705C127.444 137.799 127.32 137.929 127.228 138.093C127.138 138.255 127.093 138.436 127.093 138.636C127.095 138.835 127.14 139.015 127.228 139.177C127.318 139.339 127.44 139.467 127.594 139.562C127.749 139.657 127.927 139.704 128.127 139.704C128.275 139.704 128.414 139.676 128.542 139.62C128.67 139.563 128.782 139.485 128.877 139.385C128.974 139.283 129.049 139.167 129.103 139.038C129.158 138.908 129.184 138.772 129.182 138.628C129.182 138.437 129.136 138.26 129.045 138.098C128.955 137.936 128.831 137.806 128.674 137.707C128.518 137.609 128.339 137.56 128.138 137.56Z" fill="white"/>
<path d="M22.0469 172.59H20.995L23.3584 166.063H24.5033L26.8667 172.59H25.8148L23.9581 167.248H23.9068L22.0469 172.59ZM22.2232 170.034H25.6353V170.862H22.2232V170.034Z" fill="white"/>
<path d="M29.7335 172.689C29.2568 172.689 28.8463 172.581 28.5021 172.367C28.1601 172.15 27.8971 171.851 27.7132 171.471C27.5294 171.091 27.4375 170.655 27.4375 170.165C27.4375 169.667 27.5315 169.229 27.7197 168.848C27.9078 168.466 28.1729 168.167 28.5149 167.953C28.857 167.738 29.26 167.631 29.7239 167.631C30.098 167.631 30.4315 167.7 30.7244 167.838C31.0173 167.974 31.2535 168.165 31.4331 168.412C31.6148 168.658 31.7228 168.946 31.757 169.275H30.8238C30.7725 169.046 30.6549 168.848 30.4711 168.683C30.2894 168.517 30.0457 168.434 29.7399 168.434C29.4727 168.434 29.2386 168.504 29.0376 168.644C28.8388 168.782 28.6838 168.98 28.5727 169.237C28.4615 169.492 28.4059 169.794 28.4059 170.142C28.4059 170.499 28.4604 170.807 28.5695 171.066C28.6785 171.326 28.8324 171.526 29.0312 171.669C29.2322 171.811 29.4684 171.882 29.7399 171.882C29.9217 171.882 30.0863 171.849 30.2338 171.783C30.3834 171.715 30.5085 171.619 30.609 171.493C30.7116 171.368 30.7832 171.217 30.8238 171.041H31.757C31.7228 171.357 31.6191 171.64 31.4459 171.889C31.2728 172.137 31.0408 172.333 30.7501 172.475C30.4615 172.617 30.1226 172.689 29.7335 172.689Z" fill="white"/>
<path d="M34.8572 172.689C34.3804 172.689 33.97 172.581 33.6258 172.367C33.2837 172.15 33.0207 171.851 32.8369 171.471C32.653 171.091 32.5611 170.655 32.5611 170.165C32.5611 169.667 32.6552 169.229 32.8433 168.848C33.0314 168.466 33.2965 168.167 33.6386 167.953C33.9806 167.738 34.3836 167.631 34.8475 167.631C35.2217 167.631 35.5552 167.7 35.8481 167.838C36.1409 167.974 36.3772 168.165 36.5568 168.412C36.7385 168.658 36.8464 168.946 36.8806 169.275H35.9475C35.8962 169.046 35.7786 168.848 35.5947 168.683C35.413 168.517 35.1693 168.434 34.8636 168.434C34.5963 168.434 34.3622 168.504 34.1613 168.644C33.9625 168.782 33.8075 168.98 33.6963 169.237C33.5851 169.492 33.5296 169.794 33.5296 170.142C33.5296 170.499 33.5841 170.807 33.6931 171.066C33.8021 171.326 33.9561 171.526 34.1549 171.669C34.3558 171.811 34.5921 171.882 34.8636 171.882C35.0453 171.882 35.2099 171.849 35.3574 171.783C35.5071 171.715 35.6321 171.619 35.7326 171.493C35.8352 171.368 35.9068 171.217 35.9475 171.041H36.8806C36.8464 171.357 36.7427 171.64 36.5696 171.889C36.3964 172.137 36.1645 172.333 35.8737 172.475C35.5851 172.617 35.2463 172.689 34.8572 172.689Z" fill="white"/>
<path d="M40.0289 172.689C39.5436 172.689 39.1257 172.585 38.7751 172.379C38.4266 172.171 38.1572 171.879 37.9669 171.503C37.7788 171.125 37.6847 170.682 37.6847 170.174C37.6847 169.673 37.7788 169.231 37.9669 168.848C38.1572 168.466 38.4223 168.167 38.7622 167.953C39.1043 167.738 39.5041 167.631 39.9616 167.631C40.2395 167.631 40.5089 167.677 40.7697 167.768C41.0305 167.859 41.2646 168.003 41.472 168.198C41.6793 168.394 41.8429 168.648 41.9626 168.96C42.0823 169.27 42.1422 169.647 42.1422 170.091V170.429H38.2267V169.715H41.2026C41.2026 169.464 41.1513 169.242 41.0487 169.049C40.946 168.854 40.8017 168.7 40.6157 168.587C40.4319 168.474 40.216 168.418 39.968 168.418C39.6986 168.418 39.4634 168.484 39.2625 168.616C39.0637 168.745 38.9097 168.915 38.8007 169.126C38.6938 169.334 38.6404 169.56 38.6404 169.804V170.362C38.6404 170.689 38.6981 170.968 38.8135 171.197C38.9311 171.427 39.0947 171.602 39.3042 171.723C39.5137 171.842 39.7585 171.901 40.0385 171.901C40.2202 171.901 40.3859 171.876 40.5356 171.825C40.6852 171.772 40.8146 171.693 40.9236 171.589C41.0326 171.485 41.116 171.356 41.1737 171.203L42.0812 171.366C42.0086 171.632 41.8781 171.864 41.69 172.064C41.504 172.261 41.2699 172.416 40.9877 172.526C40.7077 172.634 40.3881 172.689 40.0289 172.689Z" fill="white"/>
<path d="M46.897 168.89L46.028 169.043C45.9916 168.932 45.9339 168.827 45.8548 168.727C45.7779 168.627 45.6731 168.546 45.5406 168.482C45.408 168.418 45.2423 168.386 45.0435 168.386C44.772 168.386 44.5454 168.447 44.3637 168.568C44.182 168.687 44.0911 168.841 44.0911 169.03C44.0911 169.194 44.152 169.325 44.2739 169.425C44.3957 169.525 44.5924 169.607 44.8639 169.671L45.6464 169.849C46.0996 169.953 46.4374 170.114 46.6597 170.33C46.8821 170.547 46.9932 170.828 46.9932 171.175C46.9932 171.468 46.9077 171.729 46.7367 171.959C46.5678 172.186 46.3316 172.365 46.028 172.494C45.7266 172.624 45.377 172.689 44.9794 172.689C44.4278 172.689 43.9778 172.572 43.6293 172.338C43.2808 172.102 43.0671 171.768 42.988 171.334L43.9147 171.194C43.9724 171.434 44.0911 171.616 44.2707 171.739C44.4503 171.86 44.6843 171.921 44.973 171.921C45.2872 171.921 45.5384 171.856 45.7266 171.726C45.9147 171.594 46.0088 171.434 46.0088 171.245C46.0088 171.092 45.951 170.963 45.8356 170.859C45.7223 170.755 45.548 170.677 45.3129 170.623L44.4791 170.442C44.0195 170.338 43.6796 170.172 43.4594 169.945C43.2413 169.717 43.1323 169.429 43.1323 169.081C43.1323 168.792 43.2135 168.539 43.376 168.322C43.5385 168.106 43.7629 167.937 44.0494 167.816C44.3359 167.693 44.664 167.631 45.0339 167.631C45.5662 167.631 45.9852 167.746 46.2909 167.975C46.5967 168.202 46.7987 168.507 46.897 168.89Z" fill="white"/>
<path d="M51.7385 168.89L50.8694 169.043C50.8331 168.932 50.7754 168.827 50.6963 168.727C50.6193 168.627 50.5145 168.546 50.382 168.482C50.2495 168.418 50.0838 168.386 49.885 168.386C49.6134 168.386 49.3868 168.447 49.2051 168.568C49.0234 168.687 48.9325 168.841 48.9325 169.03C48.9325 169.194 48.9935 169.325 49.1153 169.425C49.2372 169.525 49.4339 169.607 49.7054 169.671L50.4878 169.849C50.9411 169.953 51.2788 170.114 51.5012 170.33C51.7235 170.547 51.8347 170.828 51.8347 171.175C51.8347 171.468 51.7492 171.729 51.5781 171.959C51.4092 172.186 51.173 172.365 50.8694 172.494C50.568 172.624 50.2185 172.689 49.8208 172.689C49.2692 172.689 48.8192 172.572 48.4708 172.338C48.1223 172.102 47.9085 171.768 47.8294 171.334L48.7562 171.194C48.8139 171.434 48.9325 171.616 49.1121 171.739C49.2917 171.86 49.5258 171.921 49.8144 171.921C50.1287 171.921 50.3799 171.856 50.568 171.726C50.7561 171.594 50.8502 171.434 50.8502 171.245C50.8502 171.092 50.7925 170.963 50.677 170.859C50.5637 170.755 50.3895 170.677 50.1543 170.623L49.3206 170.442C48.8609 170.338 48.521 170.172 48.3008 169.945C48.0827 169.717 47.9737 169.429 47.9737 169.081C47.9737 168.792 48.0549 168.539 48.2174 168.322C48.3799 168.106 48.6044 167.937 48.8908 167.816C49.1773 167.693 49.5055 167.631 49.8753 167.631C50.4077 167.631 50.8267 167.746 51.1324 167.975C51.4381 168.202 51.6401 168.507 51.7385 168.89Z" fill="white"/>
<path d="M52.8889 172.59V167.695H53.8477V172.59H52.8889ZM53.3731 166.939C53.2064 166.939 53.0631 166.884 52.9434 166.774C52.8258 166.661 52.767 166.527 52.767 166.372C52.767 166.215 52.8258 166.081 52.9434 165.971C53.0631 165.858 53.2064 165.802 53.3731 165.802C53.5399 165.802 53.6821 165.858 53.7996 165.971C53.9194 166.081 53.9792 166.215 53.9792 166.372C53.9792 166.527 53.9194 166.661 53.7996 166.774C53.6821 166.884 53.5399 166.939 53.3731 166.939Z" fill="white"/>
<path d="M55.2146 172.59V166.063H56.1735V168.488H56.2312C56.2868 168.386 56.3669 168.268 56.4717 168.134C56.5764 168.001 56.7218 167.884 56.9078 167.784C57.0938 167.682 57.3397 167.631 57.6454 167.631C58.043 167.631 58.3979 167.731 58.71 167.93C59.0221 168.13 59.2669 168.418 59.4444 168.794C59.624 169.17 59.7137 169.623 59.7137 170.152C59.7137 170.681 59.625 171.134 59.4476 171.513C59.2701 171.889 59.0264 172.179 58.7164 172.383C58.4064 172.584 58.0526 172.685 57.655 172.685C57.3557 172.685 57.1109 172.635 56.9206 172.536C56.7325 172.436 56.585 172.319 56.4781 172.185C56.3712 172.051 56.2889 171.932 56.2312 171.828H56.151V172.59H55.2146ZM56.1542 170.142C56.1542 170.486 56.2045 170.788 56.3049 171.047C56.4054 171.306 56.5508 171.509 56.7411 171.656C56.9313 171.8 57.1643 171.873 57.4401 171.873C57.7266 171.873 57.966 171.797 58.1585 171.646C58.3509 171.493 58.4962 171.286 58.5946 171.025C58.6951 170.764 58.7453 170.469 58.7453 170.142C58.7453 169.819 58.6961 169.529 58.5978 169.272C58.5016 169.015 58.3562 168.812 58.1617 168.663C57.9693 168.515 57.7287 168.44 57.4401 168.44C57.1622 168.44 56.927 168.512 56.7346 168.654C56.5444 168.796 56.4001 168.995 56.3017 169.25C56.2034 169.505 56.1542 169.802 56.1542 170.142Z" fill="white"/>
<path d="M60.7904 172.59V167.695H61.7492V172.59H60.7904ZM61.2746 166.939C61.1079 166.939 60.9647 166.884 60.8449 166.774C60.7274 166.661 60.6686 166.527 60.6686 166.372C60.6686 166.215 60.7274 166.081 60.8449 165.971C60.9647 165.858 61.1079 165.802 61.2746 165.802C61.4414 165.802 61.5836 165.858 61.7011 165.971C61.8209 166.081 61.8807 166.215 61.8807 166.372C61.8807 166.527 61.8209 166.661 61.7011 166.774C61.5836 166.884 61.4414 166.939 61.2746 166.939Z" fill="white"/>
<path d="M63.998 166.063V172.59H63.0392V166.063H63.998Z" fill="white"/>
<path d="M65.2879 172.59V167.695H66.2468V172.59H65.2879ZM65.7722 166.939C65.6054 166.939 65.4622 166.884 65.3424 166.774C65.2249 166.661 65.1661 166.527 65.1661 166.372C65.1661 166.215 65.2249 166.081 65.3424 165.971C65.4622 165.858 65.6054 165.802 65.7722 165.802C65.9389 165.802 66.0811 165.858 66.1987 165.971C66.3184 166.081 66.3782 166.215 66.3782 166.372C66.3782 166.527 66.3184 166.661 66.1987 166.774C66.0811 166.884 65.9389 166.939 65.7722 166.939Z" fill="white"/>
<path d="M69.836 167.695V168.46H67.1455V167.695H69.836ZM67.867 166.522H68.8258V171.152C68.8258 171.337 68.8536 171.476 68.9092 171.57C68.9648 171.661 69.0364 171.724 69.124 171.758C69.2138 171.79 69.3111 171.806 69.4159 171.806C69.4928 171.806 69.5602 171.8 69.6179 171.79C69.6756 171.779 69.7205 171.771 69.7526 171.764L69.9257 172.551C69.8702 172.573 69.7911 172.594 69.6884 172.615C69.5858 172.639 69.4576 172.651 69.3036 172.653C69.0514 172.658 68.8162 172.613 68.5981 172.52C68.3801 172.426 68.2037 172.282 68.069 172.086C67.9343 171.891 67.867 171.645 67.867 171.35V166.522Z" fill="white"/>
<path d="M71.5027 174.425C71.3594 174.425 71.229 174.414 71.1115 174.39C70.9939 174.369 70.9062 174.346 70.8485 174.32L71.0794 173.539C71.2547 173.586 71.4108 173.606 71.5476 173.6C71.6844 173.594 71.8052 173.543 71.9099 173.447C72.0168 173.351 72.1109 173.195 72.1921 172.979L72.3108 172.653L70.5086 167.695H71.5348L72.7822 171.493H72.8335L74.0809 167.695H75.1103L73.0804 173.243C72.9864 173.498 72.8666 173.714 72.7213 173.89C72.5759 174.068 72.4027 174.202 72.2018 174.292C72.0008 174.381 71.7678 174.425 71.5027 174.425Z" fill="white"/>
<path d="M136.874 169.064C136.874 175.26 131.821 180.282 125.587 180.282C119.352 180.282 114.299 175.26 114.299 169.064C114.299 162.869 119.352 157.846 125.587 157.846C131.821 157.846 136.874 162.869 136.874 169.064Z" fill="#C7AE41"/>
<path d="M123.106 171.334C122.697 171.334 122.335 171.266 122.018 171.129C121.702 170.992 121.455 170.806 121.275 170.569C121.098 170.33 121.01 170.06 121.012 169.758C121.01 169.523 121.061 169.307 121.165 169.11C121.27 168.914 121.411 168.75 121.589 168.619C121.768 168.486 121.968 168.401 122.188 168.365V168.326C121.898 168.263 121.664 168.116 121.484 167.887C121.307 167.655 121.219 167.389 121.22 167.086C121.219 166.798 121.299 166.542 121.462 166.316C121.625 166.09 121.849 165.913 122.133 165.783C122.417 165.652 122.741 165.587 123.106 165.587C123.467 165.587 123.789 165.652 124.071 165.783C124.355 165.913 124.578 166.09 124.741 166.316C124.906 166.542 124.989 166.798 124.989 167.086C124.989 167.389 124.898 167.655 124.717 167.887C124.537 168.116 124.305 168.263 124.021 168.326V168.365C124.241 168.401 124.439 168.486 124.615 168.619C124.793 168.75 124.934 168.914 125.038 169.11C125.145 169.307 125.198 169.523 125.198 169.758C125.198 170.06 125.108 170.33 124.928 170.569C124.749 170.806 124.501 170.992 124.186 171.129C123.873 171.266 123.513 171.334 123.106 171.334ZM123.106 170.553C123.317 170.553 123.5 170.517 123.656 170.446C123.812 170.373 123.932 170.271 124.019 170.14C124.105 170.009 124.149 169.858 124.151 169.687C124.149 169.508 124.102 169.351 124.01 169.214C123.921 169.076 123.797 168.967 123.639 168.889C123.483 168.811 123.306 168.772 123.106 168.772C122.904 168.772 122.725 168.811 122.567 168.889C122.41 168.967 122.285 169.076 122.193 169.214C122.104 169.351 122.06 169.508 122.062 169.687C122.06 169.858 122.102 170.009 122.188 170.14C122.274 170.269 122.395 170.371 122.551 170.443C122.708 170.516 122.893 170.553 123.106 170.553ZM123.106 168.004C123.278 168.004 123.43 167.969 123.562 167.9C123.696 167.831 123.801 167.735 123.878 167.611C123.955 167.487 123.995 167.344 123.997 167.182C123.995 167.022 123.956 166.881 123.881 166.761C123.806 166.639 123.702 166.545 123.568 166.48C123.434 166.412 123.28 166.379 123.106 166.379C122.928 166.379 122.772 166.412 122.636 166.48C122.502 166.545 122.398 166.639 122.323 166.761C122.249 166.881 122.214 167.022 122.215 167.182C122.214 167.344 122.25 167.487 122.325 167.611C122.402 167.733 122.508 167.829 122.641 167.9C122.777 167.969 122.932 168.004 123.106 168.004Z" fill="white"/>
<path d="M126 170.219V169.414L128.388 165.663H129.064V166.81H128.652L127.044 169.343V169.386H130.378V170.219H126ZM128.685 171.257V169.974L128.696 169.613V165.663H129.658V171.257H128.685Z" fill="white"/>
<path d="M21.5436 201.436V194.443H24.0518C24.5992 194.443 25.0528 194.542 25.4124 194.74C25.772 194.938 26.0411 195.209 26.2198 195.553C26.3985 195.894 26.4878 196.279 26.4878 196.707C26.4878 197.137 26.3973 197.524 26.2164 197.868C26.0377 198.209 25.7674 198.48 25.4055 198.68C25.0459 198.878 24.5935 198.977 24.0484 198.977H22.3236V198.083H23.9522C24.298 198.083 24.5786 198.024 24.7939 197.905C25.0092 197.785 25.1673 197.621 25.2681 197.414C25.3689 197.206 25.4193 196.971 25.4193 196.707C25.4193 196.443 25.3689 196.208 25.2681 196.003C25.1673 195.798 25.0081 195.638 24.7905 195.522C24.5752 195.406 24.2912 195.348 23.9384 195.348H22.6053V201.436H21.5436Z" fill="white"/>
<path d="M29.8584 201.542C29.3384 201.542 28.8906 201.431 28.5149 201.211C28.1416 200.987 27.853 200.674 27.6491 200.272C27.4475 199.866 27.3468 199.392 27.3468 198.848C27.3468 198.31 27.4475 197.837 27.6491 197.427C27.853 197.017 28.137 196.698 28.5012 196.468C28.8677 196.238 29.296 196.123 29.7862 196.123C30.084 196.123 30.3726 196.172 30.652 196.27C30.9315 196.368 31.1823 196.521 31.4045 196.731C31.6267 196.94 31.8019 197.212 31.9302 197.547C32.0584 197.879 32.1226 198.283 32.1226 198.759V199.121H27.9274V198.356H31.1159C31.1159 198.087 31.0609 197.849 30.951 197.642C30.841 197.433 30.6864 197.268 30.4871 197.147C30.2901 197.027 30.0588 196.966 29.7931 196.966C29.5045 196.966 29.2525 197.037 29.0372 197.178C28.8242 197.317 28.6593 197.499 28.5424 197.724C28.4279 197.947 28.3706 198.19 28.3706 198.452V199.049C28.3706 199.4 28.4325 199.698 28.5562 199.944C28.6822 200.19 28.8574 200.377 29.0819 200.507C29.3063 200.635 29.5686 200.698 29.8687 200.698C30.0634 200.698 30.2409 200.671 30.4012 200.616C30.5616 200.559 30.7001 200.475 30.817 200.364C30.9338 200.252 31.0231 200.114 31.085 199.951L32.0573 200.125C31.9794 200.409 31.8397 200.659 31.6381 200.872C31.4388 201.084 31.188 201.249 30.8857 201.368C30.5856 201.484 30.2432 201.542 29.8584 201.542Z" fill="white"/>
<path d="M33.2624 201.436V196.191H34.2554V197.024H34.3103C34.4066 196.742 34.5761 196.52 34.8189 196.358C35.0639 196.195 35.3411 196.113 35.6503 196.113C35.7145 196.113 35.79 196.115 35.8771 196.119C35.9664 196.124 36.0363 196.13 36.0867 196.137V197.113C36.0454 197.102 35.9721 197.089 35.8668 197.076C35.7614 197.06 35.656 197.052 35.5507 197.052C35.3079 197.052 35.0914 197.103 34.9013 197.205C34.7135 197.305 34.5646 197.445 34.4547 197.625C34.3447 197.803 34.2897 198.005 34.2897 198.233V201.436H33.2624Z" fill="white"/>
<path d="M39.0097 201.542C38.4989 201.542 38.0591 201.427 37.6904 201.197C37.3239 200.965 37.0421 200.645 36.8451 200.237C36.6481 199.83 36.5497 199.363 36.5497 198.837C36.5497 198.305 36.6504 197.835 36.852 197.427C37.0536 197.017 37.3376 196.698 37.7041 196.468C38.0706 196.238 38.5024 196.123 38.9994 196.123C39.4003 196.123 39.7576 196.197 40.0714 196.345C40.3852 196.49 40.6383 196.695 40.8307 196.959C41.0254 197.223 41.1411 197.532 41.1777 197.885H40.1779C40.1229 197.639 39.9969 197.427 39.8 197.25C39.6053 197.072 39.3441 196.983 39.0166 196.983C38.7303 196.983 38.4795 197.058 38.2641 197.209C38.0511 197.357 37.8851 197.568 37.7659 197.844C37.6468 198.117 37.5873 198.44 37.5873 198.814C37.5873 199.196 37.6457 199.526 37.7625 199.804C37.8793 200.081 38.0442 200.297 38.2573 200.449C38.4726 200.602 38.7257 200.678 39.0166 200.678C39.2113 200.678 39.3877 200.643 39.5457 200.572C39.706 200.499 39.84 200.396 39.9477 200.261C40.0576 200.127 40.1344 199.965 40.1779 199.776H41.1777C41.1411 200.116 41.03 200.418 40.8445 200.685C40.6589 200.951 40.4104 201.16 40.0989 201.313C39.7897 201.465 39.4266 201.542 39.0097 201.542Z" fill="white"/>
<path d="M44.5509 201.542C44.0309 201.542 43.5831 201.431 43.2075 201.211C42.8341 200.987 42.5455 200.674 42.3416 200.272C42.1401 199.866 42.0393 199.392 42.0393 198.848C42.0393 198.31 42.1401 197.837 42.3416 197.427C42.5455 197.017 42.8295 196.698 43.1937 196.468C43.5602 196.238 43.9885 196.123 44.4787 196.123C44.7765 196.123 45.0651 196.172 45.3445 196.27C45.624 196.368 45.8748 196.521 46.097 196.731C46.3192 196.94 46.4944 197.212 46.6227 197.547C46.7509 197.879 46.8151 198.283 46.8151 198.759V199.121H42.6199V198.356H45.8084C45.8084 198.087 45.7534 197.849 45.6435 197.642C45.5335 197.433 45.3789 197.268 45.1796 197.147C44.9826 197.027 44.7513 196.966 44.4856 196.966C44.197 196.966 43.945 197.037 43.7297 197.178C43.5167 197.317 43.3518 197.499 43.2349 197.724C43.1204 197.947 43.0631 198.19 43.0631 198.452V199.049C43.0631 199.4 43.125 199.698 43.2487 199.944C43.3747 200.19 43.5499 200.377 43.7744 200.507C43.9988 200.635 44.2611 200.698 44.5612 200.698C44.7559 200.698 44.9334 200.671 45.0937 200.616C45.2541 200.559 45.3927 200.475 45.5095 200.364C45.6263 200.252 45.7156 200.114 45.7775 199.951L46.7498 200.125C46.6719 200.409 46.5322 200.659 46.3306 200.872C46.1314 201.084 45.8805 201.249 45.5782 201.368C45.2781 201.484 44.9357 201.542 44.5509 201.542Z" fill="white"/>
<path d="M47.9549 203.403V196.191H48.9582V197.041H49.0441C49.1036 196.932 49.1895 196.806 49.3018 196.662C49.414 196.519 49.5698 196.394 49.7691 196.287C49.9683 196.177 50.2317 196.123 50.5593 196.123C50.9853 196.123 51.3656 196.23 51.7 196.444C52.0344 196.658 52.2967 196.966 52.4868 197.369C52.6792 197.772 52.7754 198.257 52.7754 198.824C52.7754 199.391 52.6804 199.877 52.4902 200.282C52.3001 200.685 52.039 200.995 51.7069 201.214C51.3747 201.43 50.9956 201.538 50.5696 201.538C50.2489 201.538 49.9866 201.485 49.7828 201.378C49.5812 201.271 49.4232 201.146 49.3086 201.002C49.1941 200.859 49.1059 200.731 49.0441 200.62H48.9822V203.403H47.9549ZM48.9616 198.814C48.9616 199.182 49.0155 199.506 49.1231 199.783C49.2308 200.061 49.3865 200.278 49.5904 200.435C49.7942 200.59 50.0439 200.668 50.3394 200.668C50.6463 200.668 50.9029 200.587 51.109 200.425C51.3152 200.261 51.4709 200.039 51.5763 199.759C51.684 199.479 51.7378 199.164 51.7378 198.814C51.7378 198.468 51.6851 198.157 51.5797 197.881C51.4767 197.606 51.3209 197.389 51.1125 197.229C50.9063 197.07 50.6486 196.99 50.3394 196.99C50.0416 196.99 49.7897 197.066 49.5835 197.219C49.3797 197.371 49.225 197.584 49.1197 197.857C49.0143 198.131 48.9616 198.449 48.9616 198.814Z" fill="white"/>
<path d="M56.3899 196.191V197.011H53.5072V196.191H56.3899ZM54.2803 194.935H55.3076V199.896C55.3076 200.094 55.3374 200.243 55.3969 200.343C55.4565 200.441 55.5332 200.508 55.6272 200.545C55.7234 200.579 55.8276 200.596 55.9398 200.596C56.0223 200.596 56.0944 200.59 56.1563 200.579C56.2181 200.567 56.2662 200.558 56.3006 200.552L56.4861 201.395C56.4266 201.418 56.3418 201.44 56.2319 201.463C56.1219 201.488 55.9845 201.502 55.8196 201.504C55.5493 201.509 55.2973 201.461 55.0637 201.361C54.83 201.261 54.6411 201.106 54.4968 200.896C54.3525 200.687 54.2803 200.424 54.2803 200.108V194.935Z" fill="white"/>
<path d="M57.5263 201.436V196.191H58.5536V201.436H57.5263ZM58.0451 195.382C57.8665 195.382 57.713 195.323 57.5847 195.204C57.4587 195.084 57.3958 194.94 57.3958 194.774C57.3958 194.606 57.4587 194.462 57.5847 194.344C57.713 194.223 57.8665 194.163 58.0451 194.163C58.2238 194.163 58.3761 194.223 58.5021 194.344C58.6304 194.462 58.6945 194.606 58.6945 194.774C58.6945 194.94 58.6304 195.084 58.5021 195.204C58.3761 195.323 58.2238 195.382 58.0451 195.382Z" fill="white"/>
<path d="M62.1587 201.542C61.6639 201.542 61.2322 201.429 60.8634 201.204C60.4946 200.978 60.2083 200.663 60.0044 200.258C59.8006 199.853 59.6986 199.379 59.6986 198.837C59.6986 198.293 59.8006 197.818 60.0044 197.41C60.2083 197.003 60.4946 196.686 60.8634 196.461C61.2322 196.236 61.6639 196.123 62.1587 196.123C62.6534 196.123 63.0852 196.236 63.454 196.461C63.8228 196.686 64.1091 197.003 64.313 197.41C64.5168 197.818 64.6187 198.293 64.6187 198.837C64.6187 199.379 64.5168 199.853 64.313 200.258C64.1091 200.663 63.8228 200.978 63.454 201.204C63.0852 201.429 62.6534 201.542 62.1587 201.542ZM62.1621 200.685C62.4828 200.685 62.7485 200.6 62.9592 200.432C63.17 200.264 63.3257 200.039 63.4265 199.759C63.5296 199.479 63.5811 199.171 63.5811 198.834C63.5811 198.499 63.5296 198.192 63.4265 197.912C63.3257 197.63 63.17 197.403 62.9592 197.233C62.7485 197.062 62.4828 196.977 62.1621 196.977C61.8391 196.977 61.5712 197.062 61.3581 197.233C61.1474 197.403 60.9905 197.63 60.8874 197.912C60.7866 198.192 60.7362 198.499 60.7362 198.834C60.7362 199.171 60.7866 199.479 60.8874 199.759C60.9905 200.039 61.1474 200.264 61.3581 200.432C61.5712 200.6 61.8391 200.685 62.1621 200.685Z" fill="white"/>
<path d="M66.7928 198.322V201.436H65.7655V196.191H66.7515V197.045H66.8168C66.9382 196.767 67.1283 196.544 67.3872 196.376C67.6483 196.207 67.977 196.123 68.3733 196.123C68.7329 196.123 69.0478 196.198 69.3181 196.348C69.5884 196.496 69.798 196.717 69.9469 197.011C70.0958 197.304 70.1702 197.667 70.1702 198.1V201.436H69.1429V198.223C69.1429 197.843 69.0432 197.546 68.844 197.332C68.6447 197.115 68.371 197.007 68.0228 197.007C67.7846 197.007 67.5727 197.058 67.3872 197.161C67.2039 197.263 67.0585 197.414 66.9508 197.612C66.8455 197.807 66.7928 198.044 66.7928 198.322Z" fill="white"/>
<path d="M136.874 197.91C136.874 204.106 131.821 209.128 125.587 209.128C119.352 209.128 114.299 204.106 114.299 197.91C114.299 191.715 119.352 186.692 125.587 186.692C131.821 186.692 136.874 191.715 136.874 197.91Z" fill="#C6AE41"/>
<path d="M121.768 200.104L124.163 195.394V195.356H121.384V194.509H125.218V195.375L122.827 200.104H121.768Z" fill="white"/>
<path d="M126.462 200.104L128.857 195.394V195.356H126.078V194.509H129.912V195.375L127.521 200.104H126.462Z" fill="white"/>
<path d="M4 9.12821C4 6.29598 6.31029 4 9.16017 4H147.84C150.69 4 153 6.29598 153 9.12821V86.6923H4V9.12821Z" fill="#3ACA96" fill-opacity="0.11"/>
<path d="M78.9476 65.7242H77.5769C77.5378 65.5008 77.4657 65.3029 77.3607 65.1305C77.2556 64.9557 77.1249 64.8076 76.9685 64.6862C76.8122 64.5648 76.6338 64.4737 76.4335 64.413C76.2355 64.3499 76.0218 64.3183 75.7921 64.3183C75.3841 64.3183 75.0225 64.4203 74.7073 64.6243C74.3921 64.8258 74.1453 65.122 73.967 65.513C73.7886 65.9015 73.6994 66.3762 73.6994 66.9371C73.6994 67.5077 73.7886 67.9884 73.967 68.3794C74.1478 68.7679 74.3945 69.0617 74.7073 69.2608C75.0225 69.4575 75.3829 69.5558 75.7884 69.5558C76.0132 69.5558 76.2233 69.5267 76.4188 69.4684C76.6167 69.4077 76.7938 69.3191 76.9502 69.2025C77.109 69.086 77.2422 68.9427 77.3497 68.7727C77.4596 68.6028 77.5354 68.4085 77.5769 68.19L78.9476 68.1973C78.8963 68.5518 78.7851 68.8844 78.6141 69.1952C78.4455 69.506 78.2244 69.7804 77.9507 70.0184C77.6771 70.2539 77.357 70.4384 76.9905 70.572C76.624 70.7031 76.2172 70.7686 75.7701 70.7686C75.1104 70.7686 74.5216 70.6169 74.0036 70.3134C73.4857 70.0099 73.0776 69.5716 72.7796 68.9985C72.4815 68.4255 72.3324 67.7383 72.3324 66.9371C72.3324 66.1334 72.4827 65.4462 72.7832 64.8756C73.0837 64.3025 73.493 63.8643 74.011 63.5608C74.5289 63.2572 75.1153 63.1055 75.7701 63.1055C76.1879 63.1055 76.5764 63.1638 76.9355 63.2803C77.2947 63.3969 77.6148 63.568 77.8957 63.7939C78.1767 64.0172 78.4076 64.2916 78.5884 64.617C78.7717 64.9399 78.8914 65.309 78.9476 65.7242Z" fill="white"/>
<path d="M80.1194 70.6667V69.6906L82.7252 67.152C82.9744 66.9019 83.1821 66.6797 83.3482 66.4854C83.5143 66.2912 83.6389 66.103 83.722 65.9209C83.8051 65.7388 83.8466 65.5445 83.8466 65.3381C83.8466 65.1026 83.7929 64.9011 83.6854 64.7335C83.5779 64.5636 83.43 64.4325 83.2419 64.3402C83.0538 64.2479 82.84 64.2018 82.6006 64.2018C82.3538 64.2018 82.1376 64.2528 81.9519 64.3548C81.7662 64.4543 81.622 64.5964 81.5194 64.7809C81.4192 64.9654 81.3691 65.1852 81.3691 65.4401H80.0754C80.0754 64.9666 80.1842 64.5551 80.4016 64.2054C80.6191 63.8558 80.9184 63.585 81.2995 63.3932C81.6831 63.2014 82.1229 63.1055 82.6189 63.1055C83.1222 63.1055 83.5644 63.199 83.9456 63.3859C84.3267 63.5729 84.6224 63.8291 84.8325 64.1544C85.045 64.4798 85.1513 64.8513 85.1513 65.2689C85.1513 65.5482 85.0976 65.8226 84.9901 66.0921C84.8826 66.3616 84.6932 66.6603 84.422 66.9881C84.1533 67.3158 83.7758 67.7128 83.2896 68.1791L81.9958 69.4866V69.5376H85.2649V70.6667H80.1194Z" fill="white"/>
<path d="M73.7971 36.2043C73.0201 36.2043 72.3275 36.0622 71.7191 35.7781C71.1144 35.494 70.6343 35.1025 70.2788 34.6035C69.9233 34.1045 69.7382 33.5327 69.7236 32.888H72.0325C72.0581 33.3215 72.2414 33.6729 72.5822 33.9425C72.923 34.212 73.328 34.3467 73.7971 34.3467C74.1709 34.3467 74.5008 34.2648 74.7866 34.1009C75.0761 33.9333 75.3015 33.7021 75.4628 33.4071C75.6277 33.1084 75.7102 32.766 75.7102 32.38C75.7102 31.9866 75.6259 31.6406 75.4573 31.3419C75.2924 31.0433 75.0633 30.8102 74.7701 30.6426C74.4769 30.4751 74.1416 30.3895 73.7641 30.3859C73.4343 30.3859 73.1136 30.4532 72.8021 30.588C72.4942 30.7228 72.2542 30.9067 72.0819 31.1398L69.9655 30.7628L70.4987 24.8625H77.3814V26.7965H72.4613L72.1699 29.5991H72.2359C72.4338 29.3223 72.7325 29.0929 73.1319 28.9108C73.5314 28.7287 73.9785 28.6376 74.4733 28.6376C75.1513 28.6376 75.756 28.796 76.2874 29.1129C76.8188 29.4298 77.2384 29.865 77.5463 30.4186C77.8541 30.9686 78.0062 31.6023 78.0026 32.3199C78.0062 33.0738 77.8303 33.744 77.4748 34.3303C77.123 34.9131 76.6301 35.372 75.996 35.7071C75.3657 36.0385 74.6327 36.2043 73.7971 36.2043Z" fill="white"/>
<path d="M79.6628 36.0513V34.3467L83.6703 30.659C84.0112 30.3312 84.297 30.0362 84.5279 29.774C84.7625 29.5117 84.9402 29.255 85.0612 29.0036C85.1821 28.7487 85.2426 28.4737 85.2426 28.1787C85.2426 27.8509 85.1674 27.5686 85.0172 27.3319C84.8669 27.0915 84.6617 26.9076 84.4015 26.7801C84.1413 26.649 83.8463 26.5834 83.5164 26.5834C83.1719 26.5834 82.8714 26.6526 82.6148 26.791C82.3583 26.9294 82.1604 27.1279 82.0211 27.3865C81.8819 27.6451 81.8122 27.9529 81.8122 28.3098H79.5528C79.5528 27.5777 79.7196 26.9422 80.0531 26.4031C80.3866 25.8641 80.8539 25.447 81.4549 25.152C82.0559 24.857 82.7486 24.7095 83.5329 24.7095C84.3392 24.7095 85.041 24.8515 85.6384 25.1356C86.2394 25.4161 86.7067 25.8058 87.0402 26.3048C87.3737 26.8038 87.5405 27.3756 87.5405 28.0203C87.5405 28.4427 87.4562 28.8598 87.2876 29.2713C87.1227 29.6829 86.8276 30.14 86.4025 30.6426C85.9774 31.1416 85.3782 31.7407 84.6049 32.4401L82.9612 34.0408V34.1173H87.6889V36.0513H79.6628Z" fill="white"/>
<path d="M71.0955 44.4101C71.0247 44.1892 70.9294 43.9913 70.8097 43.8164C70.6924 43.6392 70.5519 43.4886 70.3882 43.3648C70.2245 43.2385 70.0376 43.1426 69.8275 43.0771C69.6198 43.0115 69.3914 42.9787 69.1421 42.9787C68.7195 42.9787 68.3383 43.0868 67.9987 43.3029C67.6591 43.519 67.3903 43.8359 67.1924 44.2535C66.997 44.6687 66.8992 45.1774 66.8992 45.7796C66.8992 46.3842 66.9982 46.8953 67.1961 47.3129C67.394 47.7306 67.6652 48.0475 68.0097 48.2636C68.3542 48.4797 68.7463 48.5877 69.1861 48.5877C69.5941 48.5877 69.9496 48.5051 70.2526 48.34C70.558 48.1749 70.7938 47.9418 70.9599 47.6407C71.1285 47.3372 71.2128 46.9803 71.2128 46.5699L71.506 46.6246H69.3584V45.6958H72.3086V46.5444C72.3086 47.1709 72.1742 47.7148 71.9055 48.1761C71.6392 48.6351 71.2702 48.9896 70.7987 49.2397C70.3296 49.4898 69.7921 49.6148 69.1861 49.6148C68.5069 49.6148 67.9107 49.4594 67.3977 49.1486C66.887 48.8378 66.4888 48.3971 66.2029 47.8265C65.917 47.2534 65.7741 46.5736 65.7741 45.7869C65.7741 45.192 65.8572 44.6578 66.0233 44.1843C66.1895 43.7108 66.4228 43.309 66.7233 42.9787C67.0263 42.6461 67.3818 42.3923 67.7898 42.2175C68.2003 42.0403 68.6486 41.9516 69.1348 41.9516C69.5404 41.9516 69.9179 42.0111 70.2673 42.1301C70.6191 42.2491 70.9318 42.4178 71.2055 42.6364C71.4816 42.8549 71.71 43.1147 71.8908 43.4158C72.0716 43.7145 72.1938 44.0459 72.2573 44.4101H71.0955Z" fill="white"/>
<path d="M73.6582 49.5128V43.9184H74.7174V44.8071H74.776C74.8786 44.506 75.0594 44.2693 75.3184 44.0969C75.5798 43.9221 75.8755 43.8346 76.2053 43.8346C76.2737 43.8346 76.3544 43.8371 76.4472 43.8419C76.5425 43.8468 76.617 43.8529 76.6708 43.8601V44.9018C76.6268 44.8897 76.5486 44.8763 76.4362 44.8617C76.3238 44.8447 76.2114 44.8362 76.099 44.8362C75.84 44.8362 75.6092 44.8909 75.4064 45.0001C75.206 45.107 75.0472 45.2563 74.9299 45.4481C74.8127 45.6375 74.754 45.8536 74.754 46.0964V49.5128H73.6582Z" fill="white"/>
<path d="M79.8436 49.6257C79.289 49.6257 78.8114 49.508 78.4107 49.2724C78.0124 49.0345 77.7046 48.7006 77.4871 48.2708C77.2721 47.8386 77.1646 47.3324 77.1646 46.752C77.1646 46.179 77.2721 45.674 77.4871 45.2369C77.7046 44.7998 78.0075 44.4587 78.396 44.2134C78.7869 43.9682 79.2438 43.8456 79.7667 43.8456C80.0843 43.8456 80.3922 43.8978 80.6902 44.0022C80.9883 44.1066 81.2558 44.2705 81.4928 44.4939C81.7298 44.7173 81.9167 45.0074 82.0536 45.3644C82.1904 45.7189 82.2588 46.1499 82.2588 46.6573V47.0434H77.784V46.2276H81.185C81.185 45.941 81.1264 45.6873 81.0091 45.4663C80.8918 45.243 80.7269 45.0669 80.5143 44.9382C80.3042 44.8095 80.0574 44.7452 79.774 44.7452C79.4662 44.7452 79.1974 44.8205 78.9677 44.971C78.7405 45.1191 78.5646 45.3134 78.44 45.5538C78.3178 45.7917 78.2567 46.0503 78.2567 46.3295V46.9669C78.2567 47.3409 78.3227 47.6589 78.4546 47.9212C78.589 48.1834 78.7759 48.3837 79.0154 48.5221C79.2548 48.6581 79.5346 48.7261 79.8546 48.7261C80.0623 48.7261 80.2517 48.697 80.4227 48.6387C80.5937 48.578 80.7415 48.4882 80.8661 48.3692C80.9908 48.2502 81.086 48.1033 81.152 47.9285L82.1892 48.1142C82.1061 48.4177 81.9571 48.6836 81.7421 48.9119C81.5295 49.1377 81.262 49.3137 80.9394 49.44C80.6194 49.5638 80.2541 49.6257 79.8436 49.6257Z" fill="white"/>
<path d="M85.1128 49.6367C84.7561 49.6367 84.4336 49.5711 84.1453 49.44C83.857 49.3064 83.6286 49.1134 83.46 48.8609C83.2938 48.6083 83.2108 48.2988 83.2108 47.9321C83.2108 47.6165 83.2718 47.3566 83.394 47.1527C83.5162 46.9487 83.6811 46.7873 83.8888 46.6683C84.0964 46.5493 84.3286 46.4594 84.5851 46.3987C84.8416 46.338 85.1031 46.2919 85.3694 46.2603C85.7066 46.2215 85.9802 46.1899 86.1903 46.1656C86.4004 46.1389 86.5531 46.0964 86.6484 46.0382C86.7437 45.9799 86.7914 45.8852 86.7914 45.7541V45.7286C86.7914 45.4105 86.701 45.164 86.5202 44.9892C86.3418 44.8144 86.0755 44.727 85.7212 44.727C85.3523 44.727 85.0615 44.8083 84.849 44.971C84.6388 45.1313 84.4935 45.3097 84.4128 45.5064L83.383 45.2733C83.5052 44.9334 83.6835 44.659 83.9181 44.4502C84.1551 44.2389 84.4275 44.086 84.7354 43.9913C85.0432 43.8941 85.3669 43.8456 85.7066 43.8456C85.9313 43.8456 86.1696 43.8723 86.4212 43.9257C86.6753 43.9767 86.9123 44.0714 87.1322 44.2098C87.3545 44.3482 87.5366 44.5461 87.6783 44.8035C87.82 45.0584 87.8908 45.3899 87.8908 45.7978V49.5128H86.8207V48.748H86.7767C86.7059 48.8888 86.5996 49.0272 86.4579 49.1632C86.3161 49.2991 86.1341 49.4121 85.9118 49.5019C85.6895 49.5917 85.4231 49.6367 85.1128 49.6367ZM85.3511 48.7625C85.654 48.7625 85.913 48.703 86.128 48.5841C86.3455 48.4651 86.5104 48.3097 86.6228 48.1179C86.7376 47.9236 86.795 47.716 86.795 47.495V46.7739C86.7559 46.8127 86.6802 46.8492 86.5678 46.8832C86.4579 46.9147 86.332 46.9426 86.1903 46.9669C86.0486 46.9888 85.9106 47.0094 85.7762 47.0288C85.6418 47.0458 85.5294 47.0604 85.439 47.0726C85.2265 47.0993 85.0322 47.1442 84.8563 47.2073C84.6828 47.2704 84.5436 47.3615 84.4385 47.4805C84.3359 47.597 84.2846 47.7524 84.2846 47.9467C84.2846 48.2162 84.3848 48.4202 84.5851 48.5586C84.7854 48.6945 85.0408 48.7625 85.3511 48.7625Z" fill="white"/>
<path d="M91.9781 43.9184V44.7925H88.9033V43.9184H91.9781ZM89.7279 42.5781H90.8237V47.8702C90.8237 48.0814 90.8554 48.2405 90.919 48.3473C90.9825 48.4517 91.0643 48.5234 91.1645 48.5622C91.2671 48.5986 91.3783 48.6168 91.498 48.6168C91.586 48.6168 91.6629 48.6108 91.7289 48.5986C91.7949 48.5865 91.8462 48.5768 91.8828 48.5695L92.0807 49.4691C92.0172 49.4934 91.9268 49.5177 91.8095 49.542C91.6922 49.5687 91.5456 49.5832 91.3697 49.5857C91.0814 49.5905 90.8127 49.5395 90.5635 49.4327C90.3142 49.3259 90.1127 49.1607 89.9587 48.9374C89.8048 48.714 89.7279 48.4335 89.7279 48.096V42.5781Z" fill="white"/>
</g>
<defs>
<filter id="filter0_f_2808_900" x="0" y="0" width="157" height="233" filterUnits="userSpaceOnUse" color-interpolation-filters="sRGB">
<feFlood flood-opacity="0" result="BackgroundImageFix"/>
<feBlend mode="normal" in="SourceGraphic" in2="BackgroundImageFix" result="shape"/>
<feGaussianBlur stdDeviation="2" result="effect1_foregroundBlur_2808_900"/>
</filter>
</defs>
</svg>
