<svg width="63" height="97" viewBox="0 0 63 97" fill="none" xmlns="http://www.w3.org/2000/svg">
<g opacity="0.2">
<path d="M0 2.21083C0 0.989823 0.976833 0 2.18182 0H60.8182C62.0232 0 63 0.989821 63 2.21083V94.7892C63 96.0102 62.0232 97 60.8182 97H2.18182C0.976833 97 0 96.0102 0 94.7892V2.21083Z" fill="#D9D9D9" fill-opacity="0.14"/>
<path d="M7.39598 47.5328V44.719H8.38578C8.60182 44.719 8.7808 44.7588 8.92271 44.8385C9.06463 44.9182 9.17084 45.0272 9.24135 45.1655C9.31186 45.3029 9.34711 45.4577 9.34711 45.6299C9.34711 45.803 9.3114 45.9587 9.23999 46.097C9.16949 46.2344 9.06282 46.3434 8.92 46.424C8.77809 46.5037 8.59956 46.5435 8.38443 46.5435H7.70377V46.1836H8.34646C8.48295 46.1836 8.59369 46.1598 8.67865 46.1121C8.76362 46.0636 8.82599 45.9976 8.86577 45.9143C8.90554 45.8309 8.92543 45.7361 8.92543 45.6299C8.92543 45.5236 8.90554 45.4293 8.86577 45.3469C8.82599 45.2644 8.76317 45.1999 8.6773 45.1531C8.59233 45.1064 8.48024 45.0831 8.34104 45.0831H7.81495V47.5328H7.39598Z" fill="white"/>
<path d="M10.6772 47.5754C10.472 47.5754 10.2953 47.5309 10.1471 47.4421C9.99974 47.3523 9.88585 47.2264 9.8054 47.0643C9.72585 46.9012 9.68608 46.7102 9.68608 46.4913C9.68608 46.2752 9.72585 46.0847 9.8054 45.9198C9.88585 45.7549 9.99793 45.6262 10.1417 45.5337C10.2863 45.4412 10.4553 45.395 10.6488 45.395C10.7663 45.395 10.8802 45.4146 10.9904 45.454C11.1007 45.4934 11.1997 45.5552 11.2874 45.6395C11.3751 45.7238 11.4442 45.8332 11.4948 45.9679C11.5455 46.1016 11.5708 46.2642 11.5708 46.4556V46.6012H9.91523V46.2935H11.1735C11.1735 46.1854 11.1518 46.0897 11.1084 46.0063C11.065 45.9221 11.004 45.8557 10.9254 45.8071C10.8476 45.7586 10.7563 45.7343 10.6515 45.7343C10.5376 45.7343 10.4381 45.7627 10.3532 45.8195C10.2691 45.8754 10.204 45.9486 10.1579 46.0393C10.1127 46.1291 10.0901 46.2266 10.0901 46.332V46.5724C10.0901 46.7135 10.1145 46.8334 10.1634 46.9324C10.2131 47.0313 10.2822 47.1068 10.3708 47.1591C10.4594 47.2104 10.5629 47.236 10.6813 47.236C10.7581 47.236 10.8282 47.225 10.8915 47.203C10.9547 47.1801 11.0094 47.1462 11.0555 47.1014C11.1016 47.0565 11.1369 47.0011 11.1613 46.9351L11.545 47.0052C11.5143 47.1197 11.4591 47.22 11.3796 47.3061C11.3009 47.3913 11.202 47.4577 11.0826 47.5053C10.9642 47.552 10.8291 47.5754 10.6772 47.5754Z" fill="white"/>
<path d="M12.0206 47.5328V45.4224H12.4124V45.7577H12.4341C12.4721 45.6441 12.539 45.5548 12.6348 45.4897C12.7315 45.4238 12.8409 45.3908 12.9629 45.3908C12.9882 45.3908 13.0181 45.3917 13.0524 45.3936C13.0877 45.3954 13.1152 45.3977 13.1351 45.4004V45.7934C13.1189 45.7888 13.0899 45.7838 13.0483 45.7783C13.0068 45.7719 12.9652 45.7687 12.9236 45.7687C12.8278 45.7687 12.7424 45.7893 12.6673 45.8305C12.5932 45.8708 12.5345 45.9271 12.4911 45.9995C12.4477 46.0709 12.426 46.1524 12.426 46.244V47.5328H12.0206Z" fill="white"/>
<path d="M14.6002 45.4224V45.7522H13.4232V45.4224H14.6002ZM13.7459 47.5328V45.1779C13.7459 45.046 13.7744 44.9365 13.8314 44.8495C13.8883 44.7616 13.9638 44.6961 14.0578 44.653C14.1518 44.6091 14.254 44.5871 14.3642 44.5871C14.4456 44.5871 14.5152 44.594 14.573 44.6077C14.6309 44.6205 14.6738 44.6324 14.7019 44.6434L14.6069 44.9759C14.588 44.9704 14.5635 44.964 14.5337 44.9567C14.5039 44.9484 14.4677 44.9443 14.4252 44.9443C14.3267 44.9443 14.2562 44.969 14.2137 45.0185C14.1721 45.068 14.1514 45.1394 14.1514 45.2328V47.5328H13.7459Z" fill="white"/>
<path d="M15.8137 47.5754C15.6184 47.5754 15.448 47.53 15.3025 47.4393C15.157 47.3487 15.044 47.2218 14.9635 47.0588C14.8831 46.8957 14.8429 46.7052 14.8429 46.4872C14.8429 46.2683 14.8831 46.0769 14.9635 45.9129C15.044 45.749 15.157 45.6216 15.3025 45.531C15.448 45.4403 15.6184 45.395 15.8137 45.395C16.0089 45.395 16.1793 45.4403 16.3248 45.531C16.4704 45.6216 16.5834 45.749 16.6638 45.9129C16.7443 46.0769 16.7845 46.2683 16.7845 46.4872C16.7845 46.7052 16.7443 46.8957 16.6638 47.0588C16.5834 47.2218 16.4704 47.3487 16.3248 47.4393C16.1793 47.53 16.0089 47.5754 15.8137 47.5754ZM15.815 47.2305C15.9416 47.2305 16.0464 47.1966 16.1296 47.1288C16.2128 47.0611 16.2742 46.9708 16.314 46.8582C16.3547 46.7455 16.375 46.6214 16.375 46.4858C16.375 46.3512 16.3547 46.2275 16.314 46.1149C16.2742 46.0013 16.2128 45.9102 16.1296 45.8415C16.0464 45.7728 15.9416 45.7384 15.815 45.7384C15.6876 45.7384 15.5818 45.7728 15.4978 45.8415C15.4146 45.9102 15.3527 46.0013 15.312 46.1149C15.2722 46.2275 15.2523 46.3512 15.2523 46.4858C15.2523 46.6214 15.2722 46.7455 15.312 46.8582C15.3527 46.9708 15.4146 47.0611 15.4978 47.1288C15.5818 47.1966 15.6876 47.2305 15.815 47.2305Z" fill="white"/>
<path d="M17.237 47.5328V45.4224H17.6289V45.7577H17.6506C17.6885 45.6441 17.7554 45.5548 17.8512 45.4897C17.948 45.4238 18.0573 45.3908 18.1794 45.3908C18.2047 45.3908 18.2345 45.3917 18.2689 45.3936C18.3041 45.3954 18.3317 45.3977 18.3516 45.4004V45.7934C18.3353 45.7888 18.3064 45.7838 18.2648 45.7783C18.2232 45.7719 18.1816 45.7687 18.14 45.7687C18.0442 45.7687 17.9588 45.7893 17.8838 45.8305C17.8097 45.8708 17.7509 45.9271 17.7075 45.9995C17.6641 46.0709 17.6424 46.1524 17.6424 46.244V47.5328H17.237Z" fill="white"/>
<path d="M18.7024 47.5328V45.4224H19.0915V45.7659H19.1173C19.1607 45.6496 19.2316 45.5589 19.3302 45.4939C19.4287 45.4279 19.5467 45.395 19.6841 45.395C19.8233 45.395 19.9399 45.4279 20.0339 45.4939C20.1288 45.5598 20.1988 45.6505 20.244 45.7659H20.2657C20.3155 45.6532 20.3945 45.5635 20.503 45.4966C20.6115 45.4288 20.7408 45.395 20.8908 45.395C21.0797 45.395 21.2338 45.4549 21.3532 45.5749C21.4734 45.6949 21.5335 45.8758 21.5335 46.1176V47.5328H21.1281V46.1561C21.1281 46.0132 21.0897 45.9097 21.0128 45.8456C20.936 45.7815 20.8443 45.7494 20.7376 45.7494C20.6056 45.7494 20.503 45.7906 20.4298 45.8731C20.3566 45.9546 20.32 46.0595 20.32 46.1877V47.5328H19.9159V46.13C19.9159 46.0155 19.8807 45.9235 19.8102 45.8538C19.7397 45.7842 19.6479 45.7494 19.5349 45.7494C19.4581 45.7494 19.3871 45.77 19.322 45.8112C19.2579 45.8515 19.2059 45.9079 19.1661 45.9802C19.1272 46.0526 19.1078 46.1364 19.1078 46.2317V47.5328H18.7024Z" fill="white"/>
<path d="M22.6829 47.5795C22.551 47.5795 22.4317 47.5547 22.325 47.5053C22.2183 47.4549 22.1338 47.3821 22.0714 47.2868C22.01 47.1916 21.9792 47.0748 21.9792 46.9365C21.9792 46.8174 22.0018 46.7194 22.047 46.6425C22.0922 46.5655 22.1532 46.5046 22.2301 46.4597C22.3069 46.4149 22.3928 46.381 22.4877 46.3581C22.5826 46.3352 22.6793 46.3178 22.7779 46.3059C22.9026 46.2912 23.0038 46.2793 23.0816 46.2701C23.1593 46.2601 23.2158 46.244 23.2511 46.222C23.2863 46.2001 23.3039 46.1643 23.3039 46.1149V46.1053C23.3039 45.9853 23.2705 45.8923 23.2036 45.8264C23.1376 45.7604 23.0391 45.7274 22.908 45.7274C22.7715 45.7274 22.664 45.7581 22.5853 45.8195C22.5076 45.8799 22.4538 45.9473 22.424 46.0215L22.043 45.9335C22.0882 45.8053 22.1542 45.7018 22.2409 45.623C22.3286 45.5433 22.4294 45.4856 22.5433 45.4499C22.6572 45.4133 22.777 45.395 22.9026 45.395C22.9858 45.395 23.0739 45.405 23.167 45.4252C23.261 45.4444 23.3487 45.4801 23.43 45.5323C23.5123 45.5846 23.5796 45.6592 23.6321 45.7563C23.6845 45.8525 23.7107 45.9775 23.7107 46.1314V47.5328H23.3148V47.2442H23.2985C23.2723 47.2974 23.233 47.3496 23.1806 47.4009C23.1281 47.4522 23.0608 47.4948 22.9785 47.5286C22.8963 47.5625 22.7977 47.5795 22.6829 47.5795ZM22.7711 47.2497C22.8832 47.2497 22.979 47.2273 23.0585 47.1824C23.139 47.1375 23.2 47.0789 23.2416 47.0066C23.2841 46.9333 23.3053 46.855 23.3053 46.7716V46.4996C23.2908 46.5142 23.2628 46.528 23.2212 46.5408C23.1806 46.5527 23.134 46.5632 23.0816 46.5724C23.0292 46.5806 22.9781 46.5884 22.9284 46.5958C22.8786 46.6022 22.8371 46.6077 22.8036 46.6122C22.725 46.6223 22.6531 46.6393 22.588 46.6631C22.5239 46.6869 22.4723 46.7212 22.4335 46.7661C22.3955 46.8101 22.3765 46.8687 22.3765 46.942C22.3765 47.0436 22.4136 47.1206 22.4877 47.1728C22.5618 47.2241 22.6563 47.2497 22.7711 47.2497Z" fill="white"/>
<path d="M24.6561 46.2798V47.5328H24.2507V45.4224H24.6398V45.7659H24.6656C24.7135 45.6542 24.7885 45.5644 24.8907 45.4966C24.9937 45.4288 25.1234 45.395 25.2798 45.395C25.4217 45.395 25.546 45.4252 25.6527 45.4856C25.7593 45.5452 25.8421 45.634 25.9008 45.7522C25.9596 45.8703 25.9889 46.0164 25.9889 46.1904V47.5328H25.5835V46.2399C25.5835 46.0869 25.5442 45.9674 25.4656 45.8813C25.3869 45.7943 25.2789 45.7508 25.1415 45.7508C25.0475 45.7508 24.9639 45.7714 24.8907 45.8126C24.8184 45.8538 24.761 45.9143 24.7185 45.994C24.6769 46.0728 24.6561 46.168 24.6561 46.2798Z" fill="white"/>
<path d="M27.4099 47.5754C27.2083 47.5754 27.0348 47.5291 26.8893 47.4366C26.7446 47.3432 26.6334 47.2145 26.5557 47.0505C26.478 46.8866 26.4391 46.6988 26.4391 46.4872C26.4391 46.2729 26.4789 46.0837 26.5584 45.9198C26.638 45.7549 26.75 45.6262 26.8947 45.5337C27.0393 45.4412 27.2097 45.395 27.4058 45.395C27.564 45.395 27.705 45.4247 27.8289 45.4843C27.9527 45.5429 28.0526 45.6253 28.1285 45.7316C28.2054 45.8378 28.251 45.9619 28.2655 46.1039H27.8709C27.8492 46.005 27.7995 45.9198 27.7218 45.8483C27.6449 45.7769 27.5419 45.7412 27.4126 45.7412C27.2996 45.7412 27.2007 45.7714 27.1157 45.8319C27.0316 45.8914 26.9661 45.9766 26.9191 46.0874C26.8721 46.1973 26.8486 46.3274 26.8486 46.4776C26.8486 46.6315 26.8716 46.7643 26.9177 46.876C26.9638 46.9878 27.0289 47.0743 27.113 47.1357C27.1979 47.1971 27.2978 47.2278 27.4126 47.2278C27.4895 47.2278 27.5591 47.2136 27.6214 47.1852C27.6847 47.1559 27.7376 47.1142 27.7801 47.0601C27.8235 47.0061 27.8537 46.9411 27.8709 46.865H28.2655C28.251 47.0015 28.2072 47.1233 28.134 47.2305C28.0607 47.3377 27.9627 47.4219 27.8397 47.4833C27.7177 47.5447 27.5744 47.5754 27.4099 47.5754Z" fill="white"/>
<path d="M29.5966 47.5754C29.3914 47.5754 29.2147 47.5309 29.0665 47.4421C28.9191 47.3523 28.8052 47.2264 28.7248 47.0643C28.6452 46.9012 28.6055 46.7102 28.6055 46.4913C28.6055 46.2752 28.6452 46.0847 28.7248 45.9198C28.8052 45.7549 28.9173 45.6262 29.061 45.5337C29.2057 45.4412 29.3747 45.395 29.5682 45.395C29.6857 45.395 29.7996 45.4146 29.9098 45.454C30.0201 45.4934 30.1191 45.5552 30.2068 45.6395C30.2945 45.7238 30.3636 45.8332 30.4142 45.9679C30.4648 46.1016 30.4902 46.2642 30.4902 46.4556V46.6012H28.8346V46.2935H30.0929C30.0929 46.1854 30.0712 46.0897 30.0278 46.0063C29.9844 45.9221 29.9234 45.8557 29.8448 45.8071C29.767 45.7586 29.6757 45.7343 29.5709 45.7343C29.457 45.7343 29.3575 45.7627 29.2726 45.8195C29.1885 45.8754 29.1234 45.9486 29.0773 46.0393C29.0321 46.1291 29.0095 46.2266 29.0095 46.332V46.5724C29.0095 46.7135 29.0339 46.8334 29.0827 46.9324C29.1325 47.0313 29.2016 47.1068 29.2902 47.1591C29.3788 47.2104 29.4823 47.236 29.6007 47.236C29.6775 47.236 29.7476 47.225 29.8109 47.203C29.8741 47.1801 29.9288 47.1462 29.9749 47.1014C30.021 47.0565 30.0563 47.0011 30.0807 46.9351L30.4644 47.0052C30.4337 47.1197 30.3785 47.22 30.299 47.3061C30.2203 47.3913 30.1214 47.4577 30.002 47.5053C29.8836 47.552 29.7485 47.5754 29.5966 47.5754Z" fill="white"/>
<path d="M56.1818 46.2892C56.1818 48.9601 54.045 51.1254 51.4091 51.1254C48.7732 51.1254 46.6364 48.9601 46.6364 46.2892C46.6364 43.6182 48.7732 41.453 51.4091 41.453C54.045 41.453 56.1818 43.6182 56.1818 46.2892Z" fill="#C7AE41"/>
<path d="M49.7484 47.2347L50.7606 45.2045V45.188H49.5857V44.8229H51.2069V45.1962L50.1958 47.2347H49.7484Z" fill="white"/>
<path d="M52.3819 47.2677C52.2145 47.2677 52.0658 47.2387 51.9356 47.1806C51.8062 47.1225 51.7039 47.0416 51.6288 46.938C51.5536 46.8343 51.5137 46.7146 51.5091 46.5788H51.9461C51.9499 46.644 51.9713 46.7009 52.01 46.7495C52.0487 46.7974 52.1003 46.8347 52.1646 46.8614C52.2289 46.8881 52.3009 46.9015 52.3807 46.9015C52.466 46.9015 52.5415 46.8865 52.6074 46.8567C52.6732 46.8261 52.7247 46.7837 52.7619 46.7295C52.7991 46.6754 52.8173 46.6129 52.8166 46.5423C52.8173 46.4693 52.7987 46.4049 52.7608 46.3491C52.7228 46.2934 52.6678 46.2498 52.5957 46.2184C52.5245 46.187 52.4384 46.1713 52.3377 46.1713H52.1274V45.8345H52.3377C52.4206 45.8345 52.4931 45.82 52.5551 45.7909C52.6178 45.7619 52.667 45.7211 52.7027 45.6685C52.7383 45.6151 52.7557 45.5535 52.755 45.4836C52.7557 45.4153 52.7406 45.356 52.7096 45.3058C52.6794 45.2547 52.6364 45.2151 52.5806 45.1868C52.5256 45.1586 52.4609 45.1444 52.3865 45.1444C52.3137 45.1444 52.2463 45.1578 52.1843 45.1845C52.1223 45.2112 52.0724 45.2492 52.0344 45.2987C51.9964 45.3474 51.9763 45.4055 51.974 45.473H51.5591C51.5622 45.3379 51.6005 45.2194 51.6741 45.1173C51.7485 45.0145 51.8477 44.9344 51.9716 44.8771C52.0956 44.819 52.2347 44.79 52.3889 44.79C52.5477 44.79 52.6856 44.8202 52.8026 44.8806C52.9204 44.9403 53.0114 45.0208 53.0757 45.122C53.14 45.2233 53.1722 45.3352 53.1722 45.4577C53.173 45.5935 53.1334 45.7073 53.0536 45.7992C52.9746 45.891 52.8708 45.9511 52.7422 45.9794V45.9982C52.9095 46.0218 53.0378 46.0846 53.1269 46.1866C53.2167 46.2879 53.2613 46.4139 53.2605 46.5647C53.2605 46.6997 53.2225 46.8206 53.1466 46.9274C53.0715 47.0334 52.9676 47.1166 52.8351 47.177C52.7034 47.2375 52.5523 47.2677 52.3819 47.2677Z" fill="white"/>
<path d="M9.18169 57.4312H9.60201V59.2819C9.60201 59.4788 9.55637 59.6533 9.46507 59.8054C9.37377 59.9565 9.24542 60.0756 9.08 60.1626C8.91458 60.2487 8.72069 60.2917 8.49832 60.2917C8.27686 60.2917 8.08342 60.2487 7.918 60.1626C7.75258 60.0756 7.62423 59.9565 7.53293 59.8054C7.44163 59.6533 7.39598 59.4788 7.39598 59.2819V57.4312H7.81495V59.2476C7.81495 59.3749 7.84252 59.488 7.89766 59.5869C7.95371 59.6858 8.0328 59.7637 8.13494 59.8205C8.23709 59.8763 8.35821 59.9043 8.49832 59.9043C8.63933 59.9043 8.76091 59.8763 8.86306 59.8205C8.9661 59.7637 9.04474 59.6858 9.09898 59.5869C9.15412 59.488 9.18169 59.3749 9.18169 59.2476V57.4312Z" fill="white"/>
<path d="M11.7392 58.6499L11.3718 58.7158C11.3564 58.6682 11.332 58.6229 11.2986 58.5798C11.266 58.5368 11.2217 58.5015 11.1657 58.474C11.1096 58.4466 11.0396 58.4328 10.9555 58.4328C10.8407 58.4328 10.7449 58.4589 10.6681 58.5111C10.5912 58.5624 10.5528 58.6288 10.5528 58.7104C10.5528 58.7809 10.5786 58.8377 10.6301 58.8807C10.6816 58.9238 10.7648 58.959 10.8796 58.9865L11.2104 59.0634C11.4021 59.1083 11.5449 59.1775 11.6389 59.2709C11.7329 59.3643 11.7799 59.4857 11.7799 59.635C11.7799 59.7614 11.7438 59.8741 11.6714 59.973C11.6 60.071 11.5001 60.1479 11.3718 60.2038C11.2443 60.2597 11.0965 60.2876 10.9284 60.2876C10.6952 60.2876 10.5049 60.2372 10.3576 60.1365C10.2102 60.0348 10.1199 59.8905 10.0864 59.7037L10.4783 59.6432C10.5027 59.7467 10.5528 59.8251 10.6288 59.8782C10.7047 59.9304 10.8037 59.9565 10.9257 59.9565C11.0586 59.9565 11.1648 59.9286 11.2443 59.8727C11.3239 59.8159 11.3637 59.7467 11.3637 59.6652C11.3637 59.5993 11.3392 59.5439 11.2904 59.499C11.2425 59.4541 11.1689 59.4202 11.0694 59.3973L10.7169 59.319C10.5225 59.2741 10.3788 59.2027 10.2857 59.1047C10.1935 59.0067 10.1474 58.8825 10.1474 58.7323C10.1474 58.6078 10.1818 58.4988 10.2505 58.4053C10.3192 58.3119 10.4141 58.2391 10.5352 58.1869C10.6563 58.1338 10.7951 58.1072 10.9515 58.1072C11.1765 58.1072 11.3537 58.1567 11.483 58.2556C11.6122 58.3536 11.6977 58.485 11.7392 58.6499Z" fill="white"/>
<path d="M12.8317 60.2917C12.6998 60.2917 12.5805 60.267 12.4738 60.2175C12.3671 60.1672 12.2826 60.0943 12.2202 59.9991C12.1588 59.9038 12.128 59.787 12.128 59.6487C12.128 59.5297 12.1506 59.4317 12.1958 59.3547C12.241 59.2778 12.302 59.2169 12.3789 59.172C12.4557 59.1271 12.5416 59.0932 12.6365 59.0703C12.7314 59.0474 12.8281 59.03 12.9267 59.0181C13.0514 59.0034 13.1526 58.9915 13.2304 58.9824C13.3081 58.9723 13.3646 58.9563 13.3999 58.9343C13.4351 58.9123 13.4527 58.8766 13.4527 58.8271V58.8175C13.4527 58.6975 13.4193 58.6046 13.3524 58.5386C13.2864 58.4727 13.1879 58.4397 13.0568 58.4397C12.9203 58.4397 12.8128 58.4704 12.7341 58.5317C12.6564 58.5922 12.6026 58.6595 12.5728 58.7337L12.1918 58.6458C12.237 58.5175 12.3029 58.414 12.3897 58.3353C12.4774 58.2556 12.5782 58.1979 12.6921 58.1622C12.806 58.1255 12.9257 58.1072 13.0514 58.1072C13.1346 58.1072 13.2227 58.1173 13.3158 58.1374C13.4098 58.1567 13.4975 58.1924 13.5788 58.2446C13.6611 58.2968 13.7284 58.3714 13.7809 58.4685C13.8333 58.5647 13.8595 58.6897 13.8595 58.8436V60.245H13.4636V59.9565H13.4473C13.4211 60.0096 13.3818 60.0618 13.3294 60.1131C13.2769 60.1644 13.2096 60.207 13.1273 60.2409C13.0451 60.2748 12.9465 60.2917 12.8317 60.2917ZM12.9199 59.962C13.032 59.962 13.1278 59.9395 13.2073 59.8947C13.2878 59.8498 13.3488 59.7912 13.3904 59.7188C13.4329 59.6455 13.4541 59.5672 13.4541 59.4839V59.2118C13.4396 59.2265 13.4116 59.2402 13.37 59.253C13.3294 59.265 13.2828 59.2755 13.2304 59.2846C13.1779 59.2929 13.1269 59.3007 13.0772 59.308C13.0274 59.3144 12.9859 59.3199 12.9524 59.3245C12.8738 59.3346 12.8019 59.3515 12.7368 59.3753C12.6727 59.3991 12.6211 59.4335 12.5823 59.4784C12.5443 59.5223 12.5253 59.581 12.5253 59.6542C12.5253 59.7559 12.5624 59.8328 12.6365 59.885C12.7106 59.9363 12.8051 59.962 12.9199 59.962Z" fill="white"/>
<path d="M14.432 60.245V57.4312H14.8374V58.4768H14.8618C14.8853 58.4328 14.9192 58.382 14.9635 58.3243C15.0078 58.2666 15.0693 58.2162 15.1479 58.1731C15.2266 58.1292 15.3305 58.1072 15.4598 58.1072C15.6279 58.1072 15.778 58.1502 15.9099 58.2364C16.0419 58.3224 16.1454 58.4466 16.2204 58.6087C16.2964 58.7708 16.3343 58.9659 16.3343 59.194C16.3343 59.422 16.2968 59.6176 16.2218 59.7806C16.1468 59.9427 16.0437 60.0678 15.9127 60.1557C15.7816 60.2427 15.632 60.2862 15.4639 60.2862C15.3373 60.2862 15.2338 60.2647 15.1534 60.2217C15.0738 60.1786 15.0114 60.1282 14.9662 60.0705C14.9211 60.0128 14.8863 59.9615 14.8618 59.9166H14.8279V60.245H14.432ZM14.8293 59.1898C14.8293 59.3382 14.8505 59.4683 14.893 59.58C14.9355 59.6918 14.997 59.7793 15.0774 59.8425C15.1579 59.9047 15.2564 59.9359 15.373 59.9359C15.4941 59.9359 15.5954 59.9034 15.6767 59.8383C15.7581 59.7724 15.8196 59.6831 15.8611 59.5704C15.9036 59.4578 15.9249 59.3309 15.9249 59.1898C15.9249 59.0506 15.9041 58.9256 15.8625 58.8148C15.8218 58.7039 15.7603 58.6165 15.6781 58.5523C15.5967 58.4882 15.495 58.4562 15.373 58.4562C15.2555 58.4562 15.1561 58.4869 15.0747 58.5482C14.9943 58.6096 14.9333 58.6952 14.8917 58.8052C14.8501 58.9151 14.8293 59.0433 14.8293 59.1898Z" fill="white"/>
<path d="M16.7896 60.245V58.1347H17.195V60.245H16.7896ZM16.9943 57.8091C16.9238 57.8091 16.8632 57.7852 16.8126 57.7376C16.7629 57.6891 16.7381 57.6314 16.7381 57.5645C16.7381 57.4967 16.7629 57.439 16.8126 57.3914C16.8632 57.3428 16.9238 57.3186 16.9943 57.3186C17.0648 57.3186 17.1249 57.3428 17.1747 57.3914C17.2253 57.439 17.2506 57.4967 17.2506 57.5645C17.2506 57.6314 17.2253 57.6891 17.1747 57.7376C17.1249 57.7852 17.0648 57.8091 16.9943 57.8091Z" fill="white"/>
<path d="M18.1458 57.4312V60.245H17.7404V57.4312H18.1458Z" fill="white"/>
<path d="M18.6912 60.245V58.1347H19.0966V60.245H18.6912ZM18.896 57.8091C18.8254 57.8091 18.7649 57.7852 18.7143 57.7376C18.6645 57.6891 18.6397 57.6314 18.6397 57.5645C18.6397 57.4967 18.6645 57.439 18.7143 57.3914C18.7649 57.3428 18.8254 57.3186 18.896 57.3186C18.9665 57.3186 19.0266 57.3428 19.0763 57.3914C19.1269 57.439 19.1522 57.4967 19.1522 57.5645C19.1522 57.6314 19.1269 57.6891 19.0763 57.7376C19.0266 57.7852 18.9665 57.8091 18.896 57.8091Z" fill="white"/>
<path d="M20.6142 58.1347V58.4644H19.4766V58.1347H20.6142ZM19.7817 57.6291H20.1871V59.6254C20.1871 59.7051 20.1988 59.7651 20.2223 59.8054C20.2459 59.8447 20.2761 59.8718 20.3132 59.8864C20.3512 59.9002 20.3923 59.907 20.4366 59.907C20.4691 59.907 20.4976 59.9047 20.522 59.9002C20.5464 59.8956 20.5654 59.8919 20.5789 59.8892L20.6522 60.2285C20.6287 60.2377 20.5952 60.2468 20.5518 60.256C20.5084 60.2661 20.4542 60.2716 20.3891 60.2725C20.2825 60.2743 20.183 60.2551 20.0908 60.2148C19.9986 60.1745 19.9241 60.1122 19.8671 60.0279C19.8102 59.9437 19.7817 59.8379 19.7817 59.7106V57.6291Z" fill="white"/>
<path d="M21.3189 61.0364C21.2584 61.0364 21.2032 61.0313 21.1535 61.0213C21.1038 61.0121 21.0667 61.002 21.0423 60.991L21.1399 60.6544C21.2141 60.6746 21.2801 60.6833 21.3379 60.6805C21.3958 60.6778 21.4468 60.6558 21.4911 60.6146C21.5363 60.5734 21.5761 60.5061 21.6104 60.4126L21.6606 60.2725L20.8986 58.1347H21.3325L21.8599 59.7724H21.8816L22.4091 58.1347H22.8443L21.986 60.5267C21.9462 60.6366 21.8956 60.7295 21.8342 60.8056C21.7727 60.8825 21.6995 60.9402 21.6145 60.9787C21.5295 61.0172 21.431 61.0364 21.3189 61.0364Z" fill="white"/>
<path d="M56.1818 58.7251C56.1818 61.396 54.045 63.5613 51.4091 63.5613C48.7732 63.5613 46.6364 61.396 46.6364 58.7251C46.6364 56.0541 48.7732 53.8889 51.4091 53.8889C54.045 53.8889 56.1818 56.0541 56.1818 58.7251Z" fill="#8584B0"/>
<path d="M49.4664 59.2231V58.8757L50.4763 57.2588H50.7622V57.7534H50.5879L49.908 58.8451V58.8639H51.3178V59.2231H49.4664ZM50.6019 59.6706V59.1171L50.6065 58.9617V57.2588H51.0133V59.6706H50.6019Z" fill="white"/>
<path d="M52.5154 57.2258C52.6293 57.2266 52.7401 57.247 52.8478 57.2871C52.9563 57.3263 53.0539 57.3907 53.1407 57.4802C53.2274 57.5689 53.2964 57.6879 53.3475 57.837C53.3987 57.9862 53.4242 58.1707 53.4242 58.3905C53.425 58.5978 53.4033 58.7831 53.3591 58.9464C53.3158 59.1089 53.2534 59.2463 53.172 59.3586C53.0907 59.4708 52.9927 59.5564 52.878 59.6153C52.7633 59.6742 52.6343 59.7036 52.491 59.7036C52.3407 59.7036 52.2074 59.6738 52.0912 59.6141C51.9758 59.5544 51.8824 59.4728 51.8111 59.3692C51.7398 59.2655 51.6961 59.147 51.6798 59.0135H52.104C52.1257 59.1093 52.1698 59.1854 52.2365 59.242C52.3039 59.2977 52.3887 59.3256 52.491 59.3256C52.656 59.3256 52.7831 59.253 52.8722 59.1077C52.9613 58.9625 53.0058 58.7607 53.0058 58.5024H52.9896C52.9516 58.5715 52.9024 58.6312 52.842 58.6814C52.7815 58.7309 52.713 58.7689 52.6363 58.7956C52.5603 58.8223 52.4798 58.8357 52.3945 58.8357C52.2551 58.8357 52.1296 58.8019 52.018 58.7344C51.9072 58.6669 51.8192 58.5742 51.7542 58.4565C51.6899 58.3387 51.6573 58.2041 51.6565 58.0526C51.6565 57.8955 51.6922 57.7546 51.7635 57.6298C51.8355 57.5042 51.9359 57.4052 52.0645 57.333C52.1931 57.26 52.3434 57.2243 52.5154 57.2258ZM52.5166 57.5791C52.4329 57.5791 52.3573 57.5999 52.2899 57.6416C52.2233 57.6824 52.1706 57.7381 52.1319 57.8088C52.0939 57.8787 52.0749 57.9568 52.0749 58.0431C52.0757 58.1287 52.0947 58.2064 52.1319 58.2763C52.1698 58.3462 52.2214 58.4015 52.2864 58.4423C52.3523 58.4832 52.4275 58.5036 52.5119 58.5036C52.5747 58.5036 52.6332 58.4914 52.6874 58.4671C52.7416 58.4427 52.7889 58.409 52.8292 58.3658C52.8703 58.3218 52.902 58.272 52.9245 58.2162C52.9477 58.1605 52.959 58.1016 52.9582 58.0396C52.9582 57.9572 52.9388 57.881 52.9001 57.8111C52.8621 57.7413 52.8098 57.6851 52.7432 57.6427C52.6773 57.6003 52.6018 57.5791 52.5166 57.5791Z" fill="white"/>
<path d="M7.63055 72.6809H7.18582L8.18511 69.8671H8.66916L9.66845 72.6809H9.22372L8.43866 70.3782H8.41697L7.63055 72.6809ZM7.70513 71.579H9.14779V71.9362H7.70513V71.579Z" fill="white"/>
<path d="M10.8806 72.7235C10.679 72.7235 10.5055 72.6772 10.36 72.5847C10.2153 72.4913 10.1041 72.3626 10.0264 72.1987C9.94867 72.0347 9.9098 71.8469 9.9098 71.6354C9.9098 71.421 9.94957 71.2319 10.0291 71.0679C10.1087 70.9031 10.2208 70.7744 10.3654 70.6819C10.51 70.5894 10.6804 70.5431 10.8765 70.5431C11.0347 70.5431 11.1757 70.5729 11.2996 70.6324C11.4234 70.691 11.5233 70.7735 11.5992 70.8797C11.6761 70.986 11.7217 71.1101 11.7362 71.252H11.3416C11.3199 71.1531 11.2702 71.0679 11.1925 70.9965C11.1156 70.925 11.0126 70.8893 10.8833 70.8893C10.7703 70.8893 10.6714 70.9196 10.5864 70.98C10.5023 71.0395 10.4368 71.1247 10.3898 71.2356C10.3428 71.3455 10.3193 71.4755 10.3193 71.6257C10.3193 71.7796 10.3423 71.9124 10.3884 72.0242C10.4345 72.1359 10.4996 72.2225 10.5837 72.2838C10.6686 72.3452 10.7685 72.3759 10.8833 72.3759C10.9602 72.3759 11.0298 72.3617 11.0921 72.3333C11.1554 72.304 11.2083 72.2623 11.2508 72.2083C11.2942 72.1542 11.3244 72.0892 11.3416 72.0132H11.7362C11.7217 72.1497 11.6779 72.2715 11.6047 72.3786C11.5314 72.4858 11.4334 72.5701 11.3104 72.6314C11.1884 72.6928 11.0451 72.7235 10.8806 72.7235Z" fill="white"/>
<path d="M13.047 72.7235C12.8454 72.7235 12.6719 72.6772 12.5263 72.5847C12.3817 72.4913 12.2705 72.3626 12.1928 72.1987C12.115 72.0347 12.0762 71.8469 12.0762 71.6354C12.0762 71.421 12.1159 71.2319 12.1955 71.0679C12.275 70.9031 12.3871 70.7744 12.5318 70.6819C12.6764 70.5894 12.8468 70.5431 13.0429 70.5431C13.2011 70.5431 13.3421 70.5729 13.466 70.6324C13.5898 70.691 13.6897 70.7735 13.7656 70.8797C13.8424 70.986 13.8881 71.1101 13.9026 71.252H13.508C13.4863 71.1531 13.4366 71.0679 13.3588 70.9965C13.282 70.925 13.179 70.8893 13.0497 70.8893C12.9367 70.8893 12.8377 70.9196 12.7528 70.98C12.6687 71.0395 12.6032 71.1247 12.5562 71.2356C12.5092 71.3455 12.4857 71.4755 12.4857 71.6257C12.4857 71.7796 12.5087 71.9124 12.5548 72.0242C12.6009 72.1359 12.666 72.2225 12.75 72.2838C12.835 72.3452 12.9349 72.3759 13.0497 72.3759C13.1265 72.3759 13.1961 72.3617 13.2585 72.3333C13.3218 72.304 13.3747 72.2623 13.4171 72.2083C13.4605 72.1542 13.4908 72.0892 13.508 72.0132H13.9026C13.8881 72.1497 13.8443 72.2715 13.771 72.3786C13.6978 72.4858 13.5997 72.5701 13.4768 72.6314C13.3548 72.6928 13.2115 72.7235 13.047 72.7235Z" fill="white"/>
<path d="M15.2337 72.7235C15.0285 72.7235 14.8518 72.6791 14.7035 72.5902C14.5562 72.5005 14.4423 72.3745 14.3619 72.2124C14.2823 72.0494 14.2425 71.8584 14.2425 71.6395C14.2425 71.4233 14.2823 71.2328 14.3619 71.0679C14.4423 70.9031 14.5544 70.7744 14.6981 70.6819C14.8427 70.5894 15.0118 70.5431 15.2052 70.5431C15.3227 70.5431 15.4366 70.5628 15.5469 70.6022C15.6572 70.6416 15.7562 70.7034 15.8438 70.7877C15.9315 70.8719 16.0007 70.9814 16.0513 71.116C16.1019 71.2497 16.1272 71.4123 16.1272 71.6038V71.7494H14.4717V71.4416H15.73C15.73 71.3336 15.7083 71.2378 15.6649 71.1545C15.6215 71.0702 15.5605 71.0038 15.4818 70.9553C15.4041 70.9067 15.3128 70.8825 15.2079 70.8825C15.094 70.8825 14.9946 70.9108 14.9096 70.9676C14.8256 71.0235 14.7605 71.0968 14.7144 71.1875C14.6692 71.2772 14.6466 71.3748 14.6466 71.4801V71.7206C14.6466 71.8616 14.671 71.9816 14.7198 72.0805C14.7695 72.1794 14.8387 72.255 14.9273 72.3072C15.0159 72.3585 15.1194 72.3841 15.2378 72.3841C15.3146 72.3841 15.3847 72.3732 15.4479 72.3512C15.5112 72.3283 15.5659 72.2944 15.612 72.2495C15.6581 72.2046 15.6933 72.1492 15.7177 72.0833L16.1015 72.1533C16.0707 72.2678 16.0156 72.3681 15.936 72.4542C15.8574 72.5394 15.7584 72.6058 15.6391 72.6534C15.5207 72.7001 15.3856 72.7235 15.2337 72.7235Z" fill="white"/>
<path d="M18.1377 71.0858L17.7702 71.1517C17.7549 71.1041 17.7305 71.0588 17.697 71.0157C17.6645 70.9727 17.6202 70.9374 17.5641 70.9099C17.5081 70.8825 17.438 70.8687 17.354 70.8687C17.2392 70.8687 17.1434 70.8948 17.0665 70.947C16.9897 70.9983 16.9513 71.0647 16.9513 71.1462C16.9513 71.2168 16.977 71.2736 17.0286 71.3166C17.0801 71.3597 17.1632 71.3949 17.278 71.4224L17.6089 71.4993C17.8005 71.5442 17.9433 71.6134 18.0373 71.7068C18.1313 71.8002 18.1783 71.9216 18.1783 72.0709C18.1783 72.1973 18.1422 72.31 18.0699 72.4089C17.9985 72.5069 17.8986 72.5838 17.7702 72.6397C17.6428 72.6956 17.495 72.7235 17.3269 72.7235C17.0936 72.7235 16.9034 72.6731 16.756 72.5724C16.6087 72.4707 16.5183 72.3264 16.4848 72.1396L16.8767 72.0791C16.9011 72.1826 16.9513 72.2609 17.0272 72.3141C17.1031 72.3663 17.2021 72.3924 17.3241 72.3924C17.457 72.3924 17.5632 72.3645 17.6428 72.3086C17.7223 72.2518 17.7621 72.1826 17.7621 72.1011C17.7621 72.0352 17.7377 71.9798 17.6889 71.9349C17.641 71.89 17.5673 71.8561 17.4679 71.8332L17.1153 71.7549C16.921 71.71 16.7773 71.6386 16.6842 71.5406C16.592 71.4426 16.5459 71.3184 16.5459 71.1682C16.5459 71.0437 16.5802 70.9347 16.6489 70.8412C16.7176 70.7478 16.8125 70.675 16.9336 70.6228C17.0548 70.5697 17.1935 70.5431 17.3499 70.5431C17.575 70.5431 17.7521 70.5926 17.8814 70.6915C18.0107 70.7895 18.0961 70.9209 18.1377 71.0858Z" fill="white"/>
<path d="M20.1847 71.0858L19.8173 71.1517C19.8019 71.1041 19.7775 71.0588 19.7441 71.0157C19.7115 70.9727 19.6672 70.9374 19.6112 70.9099C19.5551 70.8825 19.4851 70.8687 19.401 70.8687C19.2862 70.8687 19.1904 70.8948 19.1136 70.947C19.0367 70.9983 18.9983 71.0647 18.9983 71.1462C18.9983 71.2168 19.0241 71.2736 19.0756 71.3166C19.1271 71.3597 19.2103 71.3949 19.3251 71.4224L19.6559 71.4993C19.8476 71.5442 19.9904 71.6134 20.0844 71.7068C20.1784 71.8002 20.2254 71.9216 20.2254 72.0709C20.2254 72.1973 20.1892 72.31 20.1169 72.4089C20.0455 72.5069 19.9456 72.5838 19.8173 72.6397C19.6898 72.6956 19.542 72.7235 19.3739 72.7235C19.1407 72.7235 18.9504 72.6731 18.8031 72.5724C18.6557 72.4707 18.5653 72.3264 18.5319 72.1396L18.9237 72.0791C18.9482 72.1826 18.9983 72.2609 19.0743 72.3141C19.1502 72.3663 19.2492 72.3924 19.3712 72.3924C19.5041 72.3924 19.6103 72.3645 19.6898 72.3086C19.7694 72.2518 19.8091 72.1826 19.8091 72.1011C19.8091 72.0352 19.7847 71.9798 19.7359 71.9349C19.688 71.89 19.6143 71.8561 19.5149 71.8332L19.1624 71.7549C18.968 71.71 18.8243 71.6386 18.7312 71.5406C18.639 71.4426 18.5929 71.3184 18.5929 71.1682C18.5929 71.0437 18.6273 70.9347 18.696 70.8412C18.7647 70.7478 18.8596 70.675 18.9807 70.6228C19.1018 70.5697 19.2406 70.5431 19.397 70.5431C19.622 70.5431 19.7992 70.5926 19.9285 70.6915C20.0577 70.7895 20.1431 70.9209 20.1847 71.0858Z" fill="white"/>
<path d="M20.6712 72.6809V70.5706H21.0766V72.6809H20.6712ZM20.8759 70.245C20.8054 70.245 20.7448 70.2211 20.6942 70.1735C20.6445 70.125 20.6196 70.0673 20.6196 70.0004C20.6196 69.9326 20.6445 69.8749 20.6942 69.8273C20.7448 69.7787 20.8054 69.7545 20.8759 69.7545C20.9464 69.7545 21.0065 69.7787 21.0562 69.8273C21.1068 69.8749 21.1322 69.9326 21.1322 70.0004C21.1322 70.0673 21.1068 70.125 21.0562 70.1735C21.0065 70.2211 20.9464 70.245 20.8759 70.245Z" fill="white"/>
<path d="M21.6545 72.6809V69.8671H22.0599V70.9127H22.0843C22.1078 70.8687 22.1417 70.8179 22.186 70.7602C22.2303 70.7025 22.2918 70.6521 22.3704 70.609C22.4491 70.5651 22.553 70.5431 22.6823 70.5431C22.8504 70.5431 23.0005 70.5862 23.1324 70.6722C23.2644 70.7583 23.3679 70.8825 23.4429 71.0446C23.5189 71.2067 23.5568 71.4018 23.5568 71.6299C23.5568 71.8579 23.5193 72.0535 23.4443 72.2165C23.3693 72.3787 23.2662 72.5037 23.1351 72.5916C23.0041 72.6786 22.8545 72.7221 22.6863 72.7221C22.5598 72.7221 22.4563 72.7006 22.3758 72.6576C22.2963 72.6145 22.2339 72.5641 22.1887 72.5064C22.1435 72.4487 22.1087 72.3974 22.0843 72.3525H22.0504V72.6809H21.6545ZM22.0518 71.6257C22.0518 71.7741 22.073 71.9042 22.1155 72.0159C22.158 72.1277 22.2195 72.2152 22.2999 72.2784C22.3804 72.3406 22.4789 72.3718 22.5955 72.3718C22.7166 72.3718 22.8179 72.3393 22.8992 72.2742C22.9806 72.2083 23.042 72.119 23.0836 72.0063C23.1261 71.8937 23.1473 71.7668 23.1473 71.6257C23.1473 71.4865 23.1266 71.3615 23.085 71.2507C23.0443 71.1398 22.9828 71.0524 22.9006 70.9882C22.8192 70.9241 22.7175 70.8921 22.5955 70.8921C22.478 70.8921 22.3786 70.9228 22.2972 70.9841C22.2167 71.0455 22.1557 71.1311 22.1142 71.241C22.0726 71.351 22.0518 71.4792 22.0518 71.6257Z" fill="white"/>
<path d="M24.0121 72.6809V70.5706H24.4175V72.6809H24.0121ZM24.2168 70.245C24.1463 70.245 24.0857 70.2211 24.0351 70.1735C23.9854 70.125 23.9605 70.0673 23.9605 70.0004C23.9605 69.9326 23.9854 69.8749 24.0351 69.8273C24.0857 69.7787 24.1463 69.7545 24.2168 69.7545C24.2873 69.7545 24.3474 69.7787 24.3971 69.8273C24.4478 69.8749 24.4731 69.9326 24.4731 70.0004C24.4731 70.0673 24.4478 70.125 24.3971 70.1735C24.3474 70.2211 24.2873 70.245 24.2168 70.245Z" fill="white"/>
<path d="M25.3683 69.8671V72.6809H24.9629V69.8671H25.3683Z" fill="white"/>
<path d="M25.9137 72.6809V70.5706H26.3191V72.6809H25.9137ZM26.1184 70.245C26.0479 70.245 25.9874 70.2211 25.9367 70.1735C25.887 70.125 25.8622 70.0673 25.8622 70.0004C25.8622 69.9326 25.887 69.8749 25.9367 69.8273C25.9874 69.7787 26.0479 69.7545 26.1184 69.7545C26.1889 69.7545 26.2491 69.7787 26.2988 69.8273C26.3494 69.8749 26.3747 69.9326 26.3747 70.0004C26.3747 70.0673 26.3494 70.125 26.2988 70.1735C26.2491 70.2211 26.1889 70.245 26.1184 70.245Z" fill="white"/>
<path d="M27.8367 70.5706V70.9003H26.6991V70.5706H27.8367ZM27.0042 70.065H27.4096V72.0613C27.4096 72.141 27.4213 72.201 27.4448 72.2413C27.4683 72.2806 27.4986 72.3077 27.5357 72.3223C27.5736 72.3361 27.6148 72.3429 27.6591 72.3429C27.6916 72.3429 27.7201 72.3406 27.7445 72.3361C27.7689 72.3315 27.7879 72.3278 27.8014 72.3251L27.8746 72.6644C27.8511 72.6736 27.8177 72.6827 27.7743 72.6919C27.7309 72.702 27.6767 72.7075 27.6116 72.7084C27.5049 72.7102 27.4055 72.691 27.3133 72.6507C27.2211 72.6104 27.1465 72.5481 27.0896 72.4638C27.0326 72.3796 27.0042 72.2738 27.0042 72.1465V70.065Z" fill="white"/>
<path d="M28.5414 73.4723C28.4808 73.4723 28.4257 73.4672 28.376 73.4572C28.3263 73.448 28.2892 73.4379 28.2648 73.4269L28.3624 73.0903C28.4365 73.1105 28.5025 73.1192 28.5604 73.1164C28.6182 73.1137 28.6693 73.0917 28.7136 73.0505C28.7588 73.0093 28.7986 72.942 28.8329 72.8485L28.8831 72.7084L28.1211 70.5706H28.555L29.0824 72.2083H29.1041L29.6315 70.5706H30.0668L29.2085 72.9626C29.1687 73.0725 29.1181 73.1654 29.0566 73.2415C28.9952 73.3184 28.922 73.3761 28.837 73.4146C28.752 73.453 28.6535 73.4723 28.5414 73.4723Z" fill="white"/>
<path d="M56.1818 71.161C56.1818 73.8319 54.045 75.9971 51.4091 75.9971C48.7732 75.9971 46.6364 73.8319 46.6364 71.161C46.6364 68.49 48.7732 66.3248 51.4091 66.3248C54.045 66.3248 56.1818 68.49 56.1818 71.161Z" fill="#C7AE41"/>
<path d="M50.0009 72.1065L51.0131 70.0763V70.0598H49.8381V69.6947H51.4594V70.068L50.4483 72.1065H50.0009Z" fill="white"/>
<path d="M52.8026 69.6947V72.1065H52.3714V70.1199H52.3575L51.8008 70.4802V70.0798L52.3923 69.6947H52.8026Z" fill="white"/>
<path d="M7.41778 85.1168V82.102H8.47827C8.70974 82.102 8.9015 82.1447 9.05356 82.2301C9.20561 82.3155 9.31941 82.4323 9.39495 82.5805C9.47049 82.7277 9.50826 82.8935 9.50826 83.078C9.50826 83.2635 9.47001 83.4303 9.3935 83.5785C9.31796 83.7257 9.20367 83.8425 9.05065 83.9289C8.8986 84.0142 8.70732 84.0569 8.47682 84.0569H7.74755V83.6712H8.43614C8.58239 83.6712 8.70103 83.6457 8.79207 83.5947C8.8831 83.5427 8.94993 83.472 8.99254 83.3827C9.03516 83.2934 9.05646 83.1919 9.05646 83.078C9.05646 82.9642 9.03516 82.8631 8.99254 82.7748C8.94993 82.6864 8.88262 82.6173 8.79061 82.5672C8.69957 82.5172 8.57948 82.4921 8.43033 82.4921H7.86667V85.1168H7.41778Z" fill="white"/>
<path d="M10.9334 85.1624C10.7136 85.1624 10.5242 85.1148 10.3654 85.0197C10.2075 84.9235 10.0855 84.7885 9.99929 84.6148C9.91406 84.4402 9.87145 84.2355 9.87145 84.001C9.87145 83.7694 9.91406 83.5653 9.99929 83.3886C10.0855 83.212 10.2056 83.0741 10.3596 82.975C10.5145 82.8758 10.6956 82.8263 10.9029 82.8263C11.0288 82.8263 11.1508 82.8474 11.269 82.8896C11.3871 82.9318 11.4932 82.998 11.5871 83.0883C11.6811 83.1786 11.7552 83.2959 11.8094 83.4401C11.8636 83.5834 11.8908 83.7576 11.8908 83.9627V84.1188H10.117V83.789H11.4651C11.4651 83.6732 11.4419 83.5707 11.3954 83.4814C11.3489 83.3911 11.2835 83.3199 11.1993 83.2679C11.116 83.2159 11.0181 83.1899 10.9058 83.1899C10.7838 83.1899 10.6772 83.2203 10.5862 83.2812C10.4961 83.341 10.4264 83.4195 10.377 83.5167C10.3286 83.6129 10.3044 83.7174 10.3044 83.8302V84.0878C10.3044 84.239 10.3305 84.3675 10.3828 84.4735C10.4361 84.5795 10.5102 84.6605 10.6051 84.7164C10.7 84.7714 10.8109 84.7988 10.9378 84.7988C11.0201 84.7988 11.0951 84.7871 11.1629 84.7635C11.2307 84.739 11.2893 84.7027 11.3387 84.6546C11.3881 84.6065 11.4259 84.5471 11.452 84.4765L11.8632 84.5515C11.8302 84.6742 11.7711 84.7817 11.6859 84.8739C11.6017 84.9652 11.4956 85.0363 11.3678 85.0874C11.2409 85.1374 11.0961 85.1624 10.9334 85.1624Z" fill="white"/>
<path d="M12.3727 85.1168V82.8557H12.7925V83.2149H12.8158C12.8565 83.0932 12.9281 82.9975 13.0308 82.9279C13.1344 82.8572 13.2516 82.8219 13.3824 82.8219C13.4095 82.8219 13.4414 82.8229 13.4782 82.8248C13.516 82.8268 13.5455 82.8292 13.5669 82.8322V83.2532C13.5494 83.2483 13.5184 83.2429 13.4739 83.237C13.4293 83.2301 13.3848 83.2267 13.3402 83.2267C13.2376 83.2267 13.146 83.2488 13.0657 83.2929C12.9862 83.3361 12.9233 83.3965 12.8768 83.474C12.8303 83.5505 12.8071 83.6379 12.8071 83.736V85.1168H12.3727Z" fill="white"/>
<path d="M14.8028 85.1624C14.5868 85.1624 14.4008 85.1129 14.2449 85.0138C14.09 84.9137 13.9708 84.7758 13.8875 84.6001C13.8043 84.4245 13.7626 84.2233 13.7626 83.9966C13.7626 83.7669 13.8052 83.5643 13.8904 83.3886C13.9757 83.212 14.0958 83.0741 14.2507 82.975C14.4057 82.8758 14.5882 82.8263 14.7984 82.8263C14.9679 82.8263 15.119 82.8582 15.2517 82.922C15.3843 82.9848 15.4914 83.0731 15.5727 83.187C15.655 83.3008 15.7039 83.4338 15.7194 83.5859H15.2967C15.2735 83.4799 15.2202 83.3886 15.1369 83.3121C15.0546 83.2355 14.9442 83.1973 14.8057 83.1973C14.6846 83.1973 14.5786 83.2296 14.4875 83.2944C14.3975 83.3582 14.3272 83.4495 14.2769 83.5682C14.2265 83.686 14.2013 83.8253 14.2013 83.9863C14.2013 84.1511 14.226 84.2934 14.2754 84.4132C14.3248 84.5329 14.3945 84.6256 14.4846 84.6914C14.5757 84.7571 14.6827 84.79 14.8057 84.79C14.888 84.79 14.9626 84.7748 15.0294 84.7444C15.0972 84.713 15.1538 84.6683 15.1994 84.6104C15.2459 84.5525 15.2783 84.4828 15.2967 84.4014H15.7194C15.7039 84.5476 15.657 84.6781 15.5785 84.793C15.5001 84.9078 15.395 84.9981 15.2633 85.0638C15.1325 85.1296 14.979 85.1624 14.8028 85.1624Z" fill="white"/>
<path d="M17.1457 85.1624C16.9258 85.1624 16.7365 85.1148 16.5777 85.0197C16.4198 84.9235 16.2978 84.7885 16.2116 84.6148C16.1263 84.4402 16.0837 84.2355 16.0837 84.001C16.0837 83.7694 16.1263 83.5653 16.2116 83.3886C16.2978 83.212 16.4178 83.0741 16.5718 82.975C16.7268 82.8758 16.9079 82.8263 17.1152 82.8263C17.2411 82.8263 17.3631 82.8474 17.4813 82.8896C17.5994 82.9318 17.7055 82.998 17.7994 83.0883C17.8933 83.1786 17.9674 83.2959 18.0217 83.4401C18.0759 83.5834 18.103 83.7576 18.103 83.9627V84.1188H16.3292V83.789H17.6774C17.6774 83.6732 17.6541 83.5707 17.6076 83.4814C17.5612 83.3911 17.4958 83.3199 17.4115 83.2679C17.3282 83.2159 17.2304 83.1899 17.1181 83.1899C16.996 83.1899 16.8895 83.2203 16.7985 83.2812C16.7084 83.341 16.6387 83.4195 16.5893 83.5167C16.5408 83.6129 16.5166 83.7174 16.5166 83.8302V84.0878C16.5166 84.239 16.5428 84.3675 16.5951 84.4735C16.6483 84.5795 16.7224 84.6605 16.8174 84.7164C16.9123 84.7714 17.0232 84.7988 17.15 84.7988C17.2323 84.7988 17.3074 84.7871 17.3752 84.7635C17.443 84.739 17.5016 84.7027 17.551 84.6546C17.6004 84.6065 17.6381 84.5471 17.6643 84.4765L18.0754 84.5515C18.0425 84.6742 17.9834 84.7817 17.8982 84.8739C17.8139 84.9652 17.7079 85.0363 17.58 85.0874C17.4532 85.1374 17.3084 85.1624 17.1457 85.1624Z" fill="white"/>
<path d="M18.585 85.9647V82.8557H19.0092V83.2223H19.0455C19.0707 83.1752 19.107 83.1207 19.1544 83.0589C19.2019 82.997 19.2678 82.9431 19.352 82.8969C19.4363 82.8498 19.5476 82.8263 19.6861 82.8263C19.8663 82.8263 20.0271 82.8724 20.1685 82.9647C20.3099 83.0569 20.4207 83.1899 20.5011 83.3636C20.5825 83.5373 20.6232 83.7463 20.6232 83.9907C20.6232 84.235 20.583 84.4446 20.5026 84.6193C20.4222 84.793 20.3118 84.9269 20.1714 85.0211C20.0309 85.1144 19.8706 85.161 19.6905 85.161C19.5549 85.161 19.444 85.1379 19.3578 85.0918C19.2726 85.0457 19.2058 84.9917 19.1573 84.9299C19.1089 84.868 19.0716 84.8131 19.0455 84.765H19.0193V85.9647H18.585ZM19.0106 83.9863C19.0106 84.1452 19.0334 84.2846 19.0789 84.4043C19.1244 84.5241 19.1903 84.6178 19.2765 84.6855C19.3627 84.7522 19.4682 84.7856 19.5932 84.7856C19.7229 84.7856 19.8314 84.7508 19.9186 84.6811C20.0057 84.6104 20.0716 84.5147 20.1162 84.394C20.1617 84.2733 20.1844 84.1374 20.1844 83.9863C20.1844 83.8371 20.1622 83.7031 20.1176 83.5844C20.074 83.4657 20.0082 83.3719 19.92 83.3032C19.8329 83.2345 19.7239 83.2002 19.5932 83.2002C19.4673 83.2002 19.3607 83.2331 19.2736 83.2988C19.1874 83.3646 19.122 83.4563 19.0774 83.5741C19.0329 83.6919 19.0106 83.8293 19.0106 83.9863Z" fill="white"/>
<path d="M22.1514 82.8557V83.209H20.9326V82.8557H22.1514ZM21.2595 82.314H21.6938V84.4529C21.6938 84.5383 21.7064 84.6026 21.7316 84.6457C21.7568 84.6879 21.7892 84.7169 21.8289 84.7326C21.8696 84.7473 21.9137 84.7547 21.9611 84.7547C21.996 84.7547 22.0265 84.7522 22.0527 84.7473C22.0788 84.7424 22.0991 84.7385 22.1137 84.7355L22.1921 85.0991C22.1669 85.109 22.1311 85.1188 22.0846 85.1286C22.0381 85.1394 21.98 85.1453 21.9103 85.1462C21.796 85.1482 21.6895 85.1276 21.5907 85.0844C21.4919 85.0412 21.412 84.9745 21.351 84.8842C21.29 84.7939 21.2595 84.6806 21.2595 84.5442V82.314Z" fill="white"/>
<path d="M22.6319 85.1168V82.8557H23.0663V85.1168H22.6319ZM22.8513 82.5069C22.7758 82.5069 22.7109 82.4813 22.6566 82.4303C22.6034 82.3783 22.5767 82.3165 22.5767 82.2448C22.5767 82.1722 22.6034 82.1104 22.6566 82.0594C22.7109 82.0073 22.7758 81.9813 22.8513 81.9813C22.9268 81.9813 22.9912 82.0073 23.0445 82.0594C23.0987 82.1104 23.1259 82.1722 23.1259 82.2448C23.1259 82.3165 23.0987 82.3783 23.0445 82.4303C22.9912 82.4813 22.9268 82.5069 22.8513 82.5069Z" fill="white"/>
<path d="M24.5906 85.1624C24.3814 85.1624 24.1988 85.1139 24.0429 85.0167C23.887 84.9196 23.7659 84.7836 23.6797 84.6089C23.5935 84.4343 23.5504 84.2301 23.5504 83.9966C23.5504 83.762 23.5935 83.5569 23.6797 83.3813C23.7659 83.2056 23.887 83.0692 24.0429 82.972C24.1988 82.8749 24.3814 82.8263 24.5906 82.8263C24.7998 82.8263 24.9823 82.8749 25.1383 82.972C25.2942 83.0692 25.4153 83.2056 25.5015 83.3813C25.5876 83.5569 25.6307 83.762 25.6307 83.9966C25.6307 84.2301 25.5876 84.4343 25.5015 84.6089C25.4153 84.7836 25.2942 84.9196 25.1383 85.0167C24.9823 85.1139 24.7998 85.1624 24.5906 85.1624ZM24.592 84.793C24.7276 84.793 24.84 84.7566 24.9291 84.684C25.0182 84.6114 25.084 84.5147 25.1266 84.394C25.1702 84.2733 25.192 84.1403 25.192 83.9951C25.192 83.8508 25.1702 83.7184 25.1266 83.5976C25.084 83.476 25.0182 83.3783 24.9291 83.3047C24.84 83.2311 24.7276 83.1943 24.592 83.1943C24.4555 83.1943 24.3422 83.2311 24.2521 83.3047C24.163 83.3783 24.0967 83.476 24.0531 83.5976C24.0105 83.7184 23.9892 83.8508 23.9892 83.9951C23.9892 84.1403 24.0105 84.2733 24.0531 84.394C24.0967 84.5147 24.163 84.6114 24.2521 84.684C24.3422 84.7566 24.4555 84.793 24.592 84.793Z" fill="white"/>
<path d="M26.55 83.7743V85.1168H26.1156V82.8557H26.5325V83.2238H26.5601C26.6115 83.104 26.6919 83.0079 26.8013 82.9352C26.9117 82.8626 27.0507 82.8263 27.2182 82.8263C27.3703 82.8263 27.5034 82.8587 27.6177 82.9234C27.732 82.9872 27.8206 83.0824 27.8836 83.209C27.9465 83.3356 27.978 83.4921 27.978 83.6786V85.1168H27.5436V83.7316C27.5436 83.5677 27.5015 83.4396 27.4172 83.3474C27.333 83.2542 27.2173 83.2076 27.07 83.2076C26.9693 83.2076 26.8797 83.2296 26.8013 83.2738C26.7238 83.318 26.6623 83.3827 26.6168 83.4681C26.5722 83.5525 26.55 83.6546 26.55 83.7743Z" fill="white"/>
<path d="M56.1818 83.5969C56.1818 86.2678 54.045 88.433 51.4091 88.433C48.7732 88.433 46.6364 86.2678 46.6364 83.5969C46.6364 80.9259 48.7732 78.7607 51.4091 78.7607C54.045 78.7607 56.1818 80.9259 56.1818 83.5969Z" fill="#684DD2"/>
<path d="M50.405 84.5754C50.2911 84.5746 50.1799 84.5546 50.0715 84.5153C49.963 84.4753 49.8654 84.4105 49.7786 84.321C49.6918 84.2307 49.6229 84.111 49.5717 83.9618C49.5206 83.8119 49.4954 83.6262 49.4962 83.4048C49.4962 83.1983 49.5179 83.0142 49.5613 82.8525C49.6046 82.6908 49.667 82.5542 49.7484 82.4427C49.8297 82.3304 49.9277 82.2449 50.0424 82.186C50.1578 82.1271 50.2868 82.0976 50.4294 82.0976C50.5789 82.0976 50.7114 82.1275 50.8269 82.1871C50.9431 82.2468 51.0368 82.3285 51.1081 82.4321C51.1794 82.5349 51.2236 82.6511 51.2406 82.7807H50.8164C50.7947 82.688 50.7502 82.6142 50.6828 82.5593C50.6161 82.5035 50.5317 82.4757 50.4294 82.4757C50.2644 82.4757 50.1373 82.5483 50.0482 82.6935C49.9599 82.8388 49.9153 83.0382 49.9146 83.2918H49.9308C49.9688 83.2227 50.018 83.1634 50.0784 83.1139C50.1389 83.0645 50.207 83.0264 50.283 82.9997C50.3597 82.9722 50.4406 82.9585 50.5259 82.9585C50.6653 82.9585 50.7905 82.9923 50.9013 83.0598C51.0128 83.1273 51.1012 83.2203 51.1662 83.3389C51.2313 83.4566 51.2635 83.5917 51.2627 83.744C51.2635 83.9026 51.2278 84.0451 51.1558 84.1715C51.0837 84.2971 50.9834 84.396 50.8548 84.4682C50.7262 84.5405 50.5762 84.5762 50.405 84.5754ZM50.4027 84.2221C50.4871 84.2221 50.5627 84.2013 50.6293 84.1597C50.6959 84.1181 50.7486 84.0619 50.7874 83.9913C50.8261 83.9206 50.8451 83.8413 50.8443 83.7534C50.8451 83.667 50.8265 83.5889 50.7885 83.5191C50.7513 83.4492 50.6998 83.3938 50.634 83.353C50.5681 83.3122 50.4929 83.2918 50.4085 83.2918C50.3457 83.2918 50.2872 83.3039 50.233 83.3283C50.1788 83.3526 50.1315 83.3864 50.0912 83.4296C50.0509 83.472 50.0192 83.5214 49.9959 83.5779C49.9734 83.6337 49.9618 83.6934 49.961 83.7569C49.9618 83.841 49.9812 83.9183 50.0192 83.9889C50.0571 84.0596 50.1094 84.1161 50.1761 84.1585C50.2427 84.2009 50.3182 84.2221 50.4027 84.2221Z" fill="white"/>
<path d="M52.5097 84.5754C52.3424 84.5754 52.1936 84.5464 52.0634 84.4883C51.9341 84.4302 51.8318 84.3493 51.7566 84.2457C51.6815 84.142 51.6416 84.0223 51.6369 83.8865H52.0739C52.0778 83.9516 52.0991 84.0086 52.1378 84.0572C52.1766 84.1051 52.2281 84.1424 52.2924 84.1691C52.3567 84.1958 52.4288 84.2092 52.5086 84.2092C52.5938 84.2092 52.6693 84.1942 52.7352 84.1644C52.8011 84.1338 52.8526 84.0914 52.8898 84.0372C52.927 83.983 52.9452 83.9206 52.9444 83.85C52.9452 83.777 52.9266 83.7126 52.8886 83.6568C52.8506 83.6011 52.7956 83.5575 52.7236 83.5261C52.6523 83.4947 52.5663 83.479 52.4656 83.479H52.2552V83.1422H52.4656C52.5485 83.1422 52.6209 83.1277 52.6829 83.0986C52.7457 83.0696 52.7949 83.0288 52.8305 82.9762C52.8661 82.9228 52.8836 82.8611 52.8828 82.7913C52.8836 82.723 52.8685 82.6637 52.8375 82.6134C52.8073 82.5624 52.7643 82.5228 52.7085 82.4945C52.6535 82.4662 52.5888 82.4521 52.5144 82.4521C52.4415 82.4521 52.3741 82.4655 52.3122 82.4921C52.2502 82.5188 52.2002 82.5569 52.1622 82.6064C52.1243 82.6551 52.1041 82.7132 52.1018 82.7807H51.6869C51.69 82.6456 51.7284 82.5271 51.802 82.425C51.8763 82.3222 51.9755 82.2421 52.0995 82.1848C52.2234 82.1267 52.3625 82.0976 52.5167 82.0976C52.6755 82.0976 52.8134 82.1279 52.9304 82.1883C53.0482 82.248 53.1393 82.3285 53.2036 82.4297C53.2679 82.531 53.3 82.6429 53.3 82.7654C53.3008 82.9012 53.2613 83.015 53.1815 83.1069C53.1025 83.1987 52.9986 83.2588 52.87 83.2871V83.3059C53.0374 83.3295 53.1656 83.3923 53.2547 83.4943C53.3446 83.5956 53.3891 83.7216 53.3883 83.8723C53.3883 84.0074 53.3504 84.1283 53.2745 84.2351C53.1993 84.341 53.0955 84.4243 52.963 84.4847C52.8313 84.5452 52.6802 84.5754 52.5097 84.5754Z" fill="white"/>
<path d="M0 2.21083C0 0.989823 0.976833 0 2.18182 0H60.8182C62.0232 0 63 0.989821 63 2.21083V35.6496H0V2.21083Z" fill="#8686AE" fill-opacity="0.16"/>
<path d="M31.9961 26.61H31.4165C31.4 26.5137 31.3695 26.4284 31.3251 26.3541C31.2807 26.2787 31.2254 26.2148 31.1593 26.1625C31.0932 26.1102 31.0178 26.0709 30.933 26.0447C30.8494 26.0175 30.759 26.0039 30.6619 26.0039C30.4893 26.0039 30.3365 26.0479 30.2032 26.1358C30.0699 26.2227 29.9656 26.3504 29.8902 26.5189C29.8148 26.6864 29.7771 26.8911 29.7771 27.1329C29.7771 27.3789 29.8148 27.5861 29.8902 27.7547C29.9666 27.9221 30.071 28.0488 30.2032 28.1346C30.3365 28.2194 30.4888 28.2618 30.6603 28.2618C30.7554 28.2618 30.8442 28.2493 30.9268 28.2241C31.0105 28.198 31.0854 28.1598 31.1515 28.1095C31.2187 28.0593 31.275 27.9975 31.3204 27.9242C31.3669 27.851 31.399 27.7672 31.4165 27.673L31.9961 27.6762C31.9744 27.829 31.9274 27.9724 31.8551 28.1064C31.7838 28.2404 31.6903 28.3587 31.5746 28.4612C31.4589 28.5628 31.3235 28.6423 31.1686 28.6999C31.0136 28.7564 30.8416 28.7847 30.6526 28.7847C30.3736 28.7847 30.1247 28.7193 29.9057 28.5884C29.6867 28.4576 29.5141 28.2686 29.3881 28.0216C29.2621 27.7746 29.1991 27.4783 29.1991 27.1329C29.1991 26.7864 29.2626 26.4901 29.3897 26.2441C29.5167 25.9971 29.6898 25.8081 29.9088 25.6773C30.1278 25.5465 30.3757 25.481 30.6526 25.481C30.8292 25.481 30.9935 25.5062 31.1453 25.5564C31.2972 25.6066 31.4325 25.6804 31.5513 25.7778C31.6701 25.8741 31.7678 25.9924 31.8442 26.1327C31.9217 26.2719 31.9723 26.431 31.9961 26.61Z" fill="white"/>
<path d="M33.7823 25.525V28.7407H33.2075V26.0918H33.1889L32.4466 26.5723V26.0384L33.2353 25.525H33.7823Z" fill="white"/>
<path d="M29.5115 13.8836C29.183 13.8836 28.8901 13.8224 28.6329 13.6999C28.3772 13.5774 28.1742 13.4086 28.0239 13.1935C27.8736 12.9784 27.7954 12.7319 27.7892 12.454H28.7654C28.7763 12.6408 28.8537 12.7923 28.9978 12.9085C29.142 13.0247 29.3132 13.0828 29.5115 13.0828C29.6696 13.0828 29.809 13.0475 29.9299 12.9768C30.0523 12.9046 30.1476 12.8049 30.2158 12.6777C30.2855 12.549 30.3204 12.4014 30.3204 12.2349C30.3204 12.0653 30.2848 11.9162 30.2135 11.7874C30.1438 11.6587 30.0469 11.5582 29.9229 11.4859C29.799 11.4137 29.6572 11.3768 29.4976 11.3752C29.3581 11.3752 29.2225 11.4043 29.0908 11.4624C28.9606 11.5205 28.8592 11.5998 28.7863 11.7003L27.8914 11.5377L28.1169 8.99404H31.027V9.82781H28.9467L28.8235 11.0361H28.8514C28.9351 10.9167 29.0614 10.8178 29.2303 10.7393C29.3992 10.6608 29.5882 10.6215 29.7974 10.6215C30.0841 10.6215 30.3398 10.6898 30.5645 10.8265C30.7892 10.9631 30.9666 11.1507 31.0968 11.3894C31.2269 11.6265 31.2912 11.8997 31.2897 12.209C31.2912 12.534 31.2169 12.8229 31.0665 13.0757C30.9178 13.327 30.7094 13.5248 30.4413 13.6693C30.1748 13.8122 29.8648 13.8836 29.5115 13.8836Z" fill="white"/>
<path d="M31.9916 13.8177V13.0828L33.6861 11.493C33.8302 11.3517 33.9511 11.2245 34.0487 11.1114C34.1479 10.9984 34.223 10.8877 34.2742 10.7793C34.3253 10.6694 34.3509 10.5509 34.3509 10.4237C34.3509 10.2824 34.3191 10.1607 34.2556 10.0586C34.1921 9.955 34.1053 9.8757 33.9953 9.82075C33.8852 9.76422 33.7605 9.73596 33.621 9.73596C33.4754 9.73596 33.3483 9.76579 33.2398 9.82546C33.1314 9.88513 33.0477 9.9707 32.9888 10.0822C32.9299 10.1937 32.9005 10.3263 32.9005 10.4802H31.9452C31.9452 10.1646 32.0157 9.89062 32.1567 9.65823C32.2977 9.42585 32.4953 9.24606 32.7494 9.11887C33.0035 8.99169 33.2964 8.92809 33.628 8.92809C33.9689 8.92809 34.2657 8.98933 34.5182 9.11181C34.7724 9.23271 34.9699 9.40072 35.111 9.61584C35.252 9.83095 35.3225 10.0775 35.3225 10.3554C35.3225 10.5375 35.2868 10.7173 35.2156 10.8948C35.1458 11.0722 35.0211 11.2692 34.8413 11.4859C34.6616 11.701 34.4082 11.9593 34.0813 12.2608L33.3863 12.9509V12.9839H35.3852V13.8177H31.9916Z" fill="white"/>
<path d="M26.865 19.6211V16.4053H27.9962C28.2431 16.4053 28.4476 16.4509 28.6098 16.5419C28.772 16.633 28.8934 16.7576 28.974 16.9156C29.0546 17.0727 29.0948 17.2496 29.0948 17.4464C29.0948 17.6442 29.054 17.8222 28.9724 17.9802C28.8919 18.1373 28.77 18.2618 28.6067 18.3539C28.4445 18.445 28.2405 18.4905 27.9946 18.4905H27.2167V18.0792H27.9513C28.1072 18.0792 28.2338 18.0519 28.3309 17.9975C28.428 17.942 28.4993 17.8667 28.5447 17.7714C28.5902 17.6761 28.6129 17.5678 28.6129 17.4464C28.6129 17.3249 28.5902 17.2171 28.5447 17.1229C28.4993 17.0287 28.4275 16.9549 28.3294 16.9015C28.2322 16.8481 28.1041 16.8214 27.9451 16.8214H27.3438V19.6211H26.865Z" fill="white"/>
<path d="M30.5917 19.6698C30.3686 19.6698 30.1739 19.6179 30.0076 19.5143C29.8412 19.4107 29.7121 19.2657 29.6202 19.0794C29.5282 18.893 29.4822 18.6753 29.4822 18.4262C29.4822 18.176 29.5282 17.9572 29.6202 17.7698C29.7121 17.5825 29.8412 17.4369 30.0076 17.3333C30.1739 17.2297 30.3686 17.1779 30.5917 17.1779C30.8149 17.1779 31.0096 17.2297 31.1759 17.3333C31.3423 17.4369 31.4714 17.5825 31.5633 17.7698C31.6553 17.9572 31.7013 18.176 31.7013 18.4262C31.7013 18.6753 31.6553 18.893 31.5633 19.0794C31.4714 19.2657 31.3423 19.4107 31.1759 19.5143C31.0096 19.6179 30.8149 19.6698 30.5917 19.6698ZM30.5933 19.2756C30.7379 19.2756 30.8578 19.2369 30.9528 19.1594C31.0478 19.082 31.1181 18.9789 31.1635 18.8501C31.21 18.7214 31.2333 18.5795 31.2333 18.4246C31.2333 18.2707 31.21 18.1294 31.1635 18.0006C31.1181 17.8708 31.0478 17.7667 30.9528 17.6882C30.8578 17.6097 30.7379 17.5704 30.5933 17.5704C30.4476 17.5704 30.3268 17.6097 30.2307 17.6882C30.1357 17.7667 30.0649 17.8708 30.0184 18.0006C29.9729 18.1294 29.9502 18.2707 29.9502 18.4246C29.9502 18.5795 29.9729 18.7214 30.0184 18.8501C30.0649 18.9789 30.1357 19.082 30.2307 19.1594C30.3268 19.2369 30.4476 19.2756 30.5933 19.2756Z" fill="white"/>
<path d="M33.221 19.6698C32.9979 19.6698 32.8031 19.6179 32.6368 19.5143C32.4705 19.4107 32.3414 19.2657 32.2494 19.0794C32.1575 18.893 32.1115 18.6753 32.1115 18.4262C32.1115 18.176 32.1575 17.9572 32.2494 17.7698C32.3414 17.5825 32.4705 17.4369 32.6368 17.3333C32.8031 17.2297 32.9979 17.1779 33.221 17.1779C33.4442 17.1779 33.6389 17.2297 33.8052 17.3333C33.9715 17.4369 34.1007 17.5825 34.1926 17.7698C34.2845 17.9572 34.3305 18.176 34.3305 18.4262C34.3305 18.6753 34.2845 18.893 34.1926 19.0794C34.1007 19.2657 33.9715 19.4107 33.8052 19.5143C33.6389 19.6179 33.4442 19.6698 33.221 19.6698ZM33.2226 19.2756C33.3672 19.2756 33.487 19.2369 33.5821 19.1594C33.6771 19.082 33.7474 18.9789 33.7928 18.8501C33.8393 18.7214 33.8625 18.5795 33.8625 18.4246C33.8625 18.2707 33.8393 18.1294 33.7928 18.0006C33.7474 17.8708 33.6771 17.7667 33.5821 17.6882C33.487 17.6097 33.3672 17.5704 33.2226 17.5704C33.0769 17.5704 32.956 17.6097 32.86 17.6882C32.7649 17.7667 32.6942 17.8708 32.6477 18.0006C32.6022 18.1294 32.5795 18.2707 32.5795 18.4246C32.5795 18.5795 32.6022 18.7214 32.6477 18.8501C32.6942 18.9789 32.7649 19.082 32.86 19.1594C32.956 19.2369 33.0769 19.2756 33.2226 19.2756Z" fill="white"/>
<path d="M34.8477 19.6211V17.2093H35.2955V17.5924H35.3203C35.3637 17.4626 35.4401 17.3605 35.5497 17.2862C35.6602 17.2108 35.7852 17.1732 35.9247 17.1732C35.9536 17.1732 35.9877 17.1742 36.0269 17.1763C36.0672 17.1784 36.0987 17.181 36.1214 17.1841V17.6332C36.1029 17.628 36.0698 17.6222 36.0223 17.6159C35.9748 17.6086 35.9272 17.605 35.8797 17.605C35.7702 17.605 35.6726 17.6285 35.5868 17.6756C35.5021 17.7217 35.435 17.7861 35.3854 17.8687C35.3358 17.9504 35.311 18.0436 35.311 18.1482V19.6211H34.8477Z" fill="white"/>
</g>
</svg>
