<svg width="105" height="43" viewBox="0 0 105 43" fill="none" xmlns="http://www.w3.org/2000/svg">
<path d="M100.113 25.3914C100.168 24.0823 99.8109 23.1142 99.0423 22.4869C98.2737 21.8323 97.2305 21.5051 95.9129 21.5051C94.7325 21.5051 93.7031 21.8051 92.8246 22.4051C91.9462 23.0051 91.2188 23.7687 90.6423 24.696C90.0658 25.6232 89.6266 26.646 89.3246 27.7642C89.0501 28.8551 88.9129 29.9051 88.9129 30.9142C88.9129 31.7051 88.9952 32.4414 89.1599 33.1232C89.3246 33.7778 89.5854 34.3505 89.9423 34.8414C90.3266 35.3323 90.8207 35.7278 91.4246 36.0278C92.0286 36.3005 92.7697 36.4369 93.6482 36.4369C95.0482 36.4369 96.1874 36.0687 97.0658 35.3323C97.9717 34.596 98.6168 33.5732 99.0011 32.2642H103.695C102.927 34.9914 101.636 36.9823 99.8246 38.2369C98.0129 39.4914 95.6933 40.1187 92.8658 40.1187C91.4658 40.1187 90.2305 39.9005 89.1599 39.4642C88.0893 39.0278 87.1835 38.4142 86.4423 37.6232C85.7286 36.8051 85.1795 35.8505 84.7952 34.7596C84.4109 33.6414 84.2188 32.4142 84.2188 31.0778C84.2188 29.3051 84.4933 27.6142 85.0423 26.0051C85.5913 24.396 86.3874 22.9914 87.4305 21.7914C88.4737 20.5642 89.7364 19.596 91.2187 18.8869C92.7286 18.1778 94.4305 17.8232 96.3246 17.8232C97.505 17.8232 98.6168 17.9869 99.6599 18.3142C100.703 18.6414 101.609 19.1187 102.378 19.746C103.146 20.3732 103.75 21.1642 104.189 22.1187C104.629 23.0732 104.834 24.1642 104.807 25.3914H100.113Z" fill="url(#paint0_linear_2840_584)"/>
<path d="M41.1765 42.7598H32.7144L29.0836 38.5247C26.4087 39.8398 23.4077 40.5754 20.2288 40.5754C9.07708 40.5754 0 31.481 0 20.2914C0 9.1018 9.07708 0 20.2288 0C31.3807 0 40.4651 9.1018 40.4651 20.2914C40.4651 22.8696 39.9835 25.3438 39.1017 27.6174H31.1806C32.5811 25.5222 33.4035 23.0034 33.4035 20.2914C33.4035 13.01 27.4979 7.08082 20.2362 7.08082C12.9746 7.08082 7.06897 13.0025 7.06897 20.2914C7.06897 27.5802 12.9746 33.4946 20.2362 33.4946C21.6293 33.4946 22.9779 33.2716 24.245 32.8705L19.0507 26.8075H27.5127L41.1765 42.7598Z" fill="url(#paint1_linear_2840_584)"/>
<path d="M82.3534 39.7763H73.7434L62.7656 25.7165L51.7953 39.7763H43.1855L58.4683 20.1944L43.473 0.994141H52.0828L82.3534 39.7763ZM72.3668 13.4227H63.7492L73.4559 0.994141H82.0659L72.3668 13.4227Z" fill="url(#paint2_linear_2840_584)"/>
<defs>
<linearGradient id="paint0_linear_2840_584" x1="92.8397" y1="11.9323" x2="104.386" y2="36.5727" gradientUnits="userSpaceOnUse">
<stop stop-color="#E365A6"/>
<stop offset="1" stop-color="#37B9C0"/>
</linearGradient>
<linearGradient id="paint1_linear_2840_584" x1="20.5882" y1="0" x2="20.5882" y2="42.7598" gradientUnits="userSpaceOnUse">
<stop stop-color="#EF5FA4"/>
<stop offset="1" stop-color="#1EC4C4"/>
</linearGradient>
<linearGradient id="paint2_linear_2840_584" x1="62.7694" y1="0.994141" x2="62.7694" y2="39.7763" gradientUnits="userSpaceOnUse">
<stop stop-color="#EF5FA4"/>
<stop offset="1" stop-color="#1EC4C4"/>
</linearGradient>
</defs>
</svg>
